<svg viewBox="0 0 80 80" fill="none" xmlns="http://www.w3.org/2000/svg">
<g clip-path="url(#clip0_344_190)">
<path d="M78.0292 68.0043L41.4654 12.5454C40.698 11.3815 38.9905 11.3815 38.2231 12.5455L1.65921 68.0043C0.808024 69.2954 1.73398 71.0149 3.28036 71.0149H76.4081C77.9545 71.0149 78.8804 69.2954 78.0292 68.0043Z" stroke="#FF70EA" stroke-width="1.49367"/>
<rect x="36.3101" y="27.6348" width="7.08427" height="23.7829" rx="3.54213" fill="#FF70EA"/>
<ellipse cx="39.8522" cy="58.2501" rx="3.54213" ry="3.28912" fill="#FF70EA"/>
<path d="M62.8198 10.0555C61.6749 11.6231 58.3969 17.8631 59.4251 18.6105C60.4533 19.3579 65.4087 14.3233 66.5537 12.7557C67.6987 11.1881 67.7924 9.31227 66.7616 8.56705C65.7308 7.82183 63.9633 8.48827 62.8198 10.0555Z" fill="#FF70EA"/>
<path d="M72.7822 29.8052C70.8518 29.5657 64.0351 27.6804 64.1983 26.4215C64.3616 25.1626 71.4192 25.002 73.3512 25.2418C75.2831 25.4817 76.7206 26.6987 76.5648 27.9594C76.4089 29.2202 74.7124 30.0462 72.7822 29.8052Z" fill="#FF70EA"/>
</g>
<defs>
<clipPath id="clip0_344_190">
<rect width="80" height="64.1975" fill="white" transform="translate(0 7.90039)"/>
</clipPath>
</defs>
</svg>
