<svg viewBox="0 0 24 24" fill="none" xmlns="http://www.w3.org/2000/svg">
<mask id="path-1-outside-1_326_149" maskUnits="userSpaceOnUse" x="2.55627" y="1" width="19" height="22" fill="black">
<rect fill="white" x="2.55627" y="1" width="19" height="22"/>
<path d="M3.55627 5.31966V17.2585C3.55724 18.1386 3.9073 18.9824 4.52965 19.6048C5.15201 20.2271 5.99582 20.5772 6.87596 20.5781H10.9235C11.1003 20.5781 11.2699 20.5079 11.3949 20.3829C11.5199 20.2578 11.5902 20.0883 11.5902 19.9115C11.5902 19.7346 11.5199 19.5651 11.3949 19.4401C11.2699 19.315 11.1003 19.2448 10.9235 19.2448H6.87596C6.34934 19.2442 5.84446 19.0347 5.47208 18.6623C5.0997 18.29 4.89023 17.7851 4.88961 17.2585V5.31966C4.89017 4.79302 5.09962 4.28811 5.47201 3.91572C5.84441 3.54333 6.34932 3.33388 6.87596 3.33333H15.3265C15.8531 3.33389 16.358 3.54334 16.7304 3.91573C17.1028 4.28812 17.3122 4.79302 17.3128 5.31966V10.5192C17.3128 10.696 17.383 10.8656 17.5081 10.9906C17.6331 11.1156 17.8026 11.1859 17.9795 11.1859C18.1563 11.1859 18.3258 11.1156 18.4509 10.9906C18.5759 10.8656 18.6461 10.696 18.6461 10.5192V5.31966C18.6451 4.43954 18.295 3.59577 17.6727 2.97343C17.0504 2.35109 16.2066 2.00102 15.3265 2H6.87596C5.99584 2.00101 5.15206 2.35108 4.52971 2.97342C3.90737 3.59576 3.55729 4.43954 3.55627 5.31966Z"/>
<path d="M7.58196 6.64193H14.6204C14.7972 6.64193 14.9668 6.57169 15.0918 6.44666C15.2168 6.32164 15.2871 6.15207 15.2871 5.97526C15.2871 5.79845 15.2168 5.62888 15.0918 5.50386C14.9668 5.37883 14.7972 5.30859 14.6204 5.30859H7.58196C7.40515 5.30859 7.23558 5.37883 7.11056 5.50386C6.98553 5.62888 6.91529 5.79845 6.91529 5.97526C6.91529 6.15207 6.98553 6.32164 7.11056 6.44666C7.23558 6.57169 7.40515 6.64193 7.58196 6.64193Z"/>
<path d="M15.2871 9.51758C15.2871 9.34077 15.2168 9.1712 15.0918 9.04618C14.9668 8.92115 14.7972 8.85091 14.6204 8.85091H7.58196C7.40515 8.85091 7.23558 8.92115 7.11056 9.04618C6.98553 9.1712 6.91529 9.34077 6.91529 9.51758C6.91529 9.69439 6.98553 9.86396 7.11056 9.98898C7.23558 10.114 7.40515 10.1842 7.58196 10.1842H14.6204C14.7972 10.1842 14.9668 10.114 15.0918 9.98898C15.2168 9.86395 15.2871 9.69439 15.2871 9.51758Z"/>
<path d="M7.58196 12.3939C7.40515 12.3939 7.23558 12.4641 7.11056 12.5891C6.98553 12.7142 6.91529 12.8837 6.91529 13.0605C6.91529 13.2374 6.98553 13.4069 7.11056 13.532C7.23558 13.657 7.40515 13.7272 7.58196 13.7272H10.7815C10.9583 13.7272 11.1279 13.657 11.2529 13.532C11.3779 13.4069 11.4482 13.2374 11.4482 13.0605C11.4482 12.8837 11.3779 12.7142 11.2529 12.5891C11.1279 12.4641 10.9583 12.3939 10.7815 12.3939H7.58196Z"/>
<path d="M16.3743 11.6416C15.9194 11.6416 15.4747 11.7766 15.0964 12.0293C14.7181 12.2821 14.4233 12.6414 14.2492 13.0617C14.0752 13.482 14.0296 13.9445 14.1184 14.3907C14.2072 14.8369 14.4262 15.2468 14.7479 15.5684C15.0696 15.8901 15.4795 16.1092 15.9257 16.198C16.3719 16.2867 16.8344 16.2412 17.2547 16.0671C17.675 15.893 18.0343 15.5982 18.287 15.22C18.5398 14.8417 18.6747 14.397 18.6748 13.9421C18.6741 13.3322 18.4315 12.7474 18.0002 12.3162C17.5689 11.8849 16.9842 11.6423 16.3743 11.6416ZM16.3743 14.9089C16.1831 14.9088 15.9962 14.852 15.8373 14.7458C15.6783 14.6395 15.5545 14.4885 15.4813 14.3118C15.4082 14.1351 15.3891 13.9408 15.4265 13.7532C15.4638 13.5657 15.5559 13.3935 15.6911 13.2583C15.8263 13.1231 15.9986 13.0311 16.1861 12.9938C16.3737 12.9565 16.5681 12.9757 16.7447 13.0489C16.9213 13.1221 17.0723 13.246 17.1785 13.405C17.2847 13.564 17.3414 13.7509 17.3414 13.9421C17.3411 14.1984 17.2391 14.4442 17.0578 14.6255C16.8765 14.8067 16.6307 14.9086 16.3743 14.9089Z"/>
<path d="M12.972 22C13.0595 22 13.1462 21.9828 13.2271 21.9493C13.308 21.9158 13.3815 21.8667 13.4434 21.8048C13.5053 21.7429 13.5544 21.6694 13.5879 21.5885C13.6214 21.5076 13.6387 21.4209 13.6386 21.3333C13.6386 20.6077 13.9269 19.9119 14.4399 19.3988C14.953 18.8857 15.6489 18.5975 16.3745 18.5975C17.1001 18.5975 17.7959 18.8857 18.309 19.3988C18.8221 19.9119 19.1103 20.6077 19.1103 21.3333C19.1103 21.5101 19.1805 21.6797 19.3056 21.8047C19.4306 21.9298 19.6002 22 19.777 22C19.9538 22 20.1234 21.9298 20.2484 21.8047C20.3734 21.6797 20.4436 21.5101 20.4436 21.3333C20.4436 20.2541 20.0149 19.2191 19.2518 18.456C18.4887 17.6929 17.4537 17.2642 16.3745 17.2642C15.2953 17.2642 14.2602 17.6929 13.4971 18.456C12.734 19.2191 12.3053 20.2541 12.3053 21.3333C12.3053 21.4209 12.3225 21.5076 12.356 21.5885C12.3895 21.6694 12.4386 21.7429 12.5005 21.8048C12.5624 21.8667 12.6359 21.9158 12.7168 21.9493C12.7977 21.9828 12.8844 22 12.972 22Z"/>
</mask>
<path d="M3.55627 5.31966V17.2585C3.55724 18.1386 3.9073 18.9824 4.52965 19.6048C5.15201 20.2271 5.99582 20.5772 6.87596 20.5781H10.9235C11.1003 20.5781 11.2699 20.5079 11.3949 20.3829C11.5199 20.2578 11.5902 20.0883 11.5902 19.9115C11.5902 19.7346 11.5199 19.5651 11.3949 19.4401C11.2699 19.315 11.1003 19.2448 10.9235 19.2448H6.87596C6.34934 19.2442 5.84446 19.0347 5.47208 18.6623C5.0997 18.29 4.89023 17.7851 4.88961 17.2585V5.31966C4.89017 4.79302 5.09962 4.28811 5.47201 3.91572C5.84441 3.54333 6.34932 3.33388 6.87596 3.33333H15.3265C15.8531 3.33389 16.358 3.54334 16.7304 3.91573C17.1028 4.28812 17.3122 4.79302 17.3128 5.31966V10.5192C17.3128 10.696 17.383 10.8656 17.5081 10.9906C17.6331 11.1156 17.8026 11.1859 17.9795 11.1859C18.1563 11.1859 18.3258 11.1156 18.4509 10.9906C18.5759 10.8656 18.6461 10.696 18.6461 10.5192V5.31966C18.6451 4.43954 18.295 3.59577 17.6727 2.97343C17.0504 2.35109 16.2066 2.00102 15.3265 2H6.87596C5.99584 2.00101 5.15206 2.35108 4.52971 2.97342C3.90737 3.59576 3.55729 4.43954 3.55627 5.31966Z" fill="#EF3240"/>
<path d="M7.58196 6.64193H14.6204C14.7972 6.64193 14.9668 6.57169 15.0918 6.44666C15.2168 6.32164 15.2871 6.15207 15.2871 5.97526C15.2871 5.79845 15.2168 5.62888 15.0918 5.50386C14.9668 5.37883 14.7972 5.30859 14.6204 5.30859H7.58196C7.40515 5.30859 7.23558 5.37883 7.11056 5.50386C6.98553 5.62888 6.91529 5.79845 6.91529 5.97526C6.91529 6.15207 6.98553 6.32164 7.11056 6.44666C7.23558 6.57169 7.40515 6.64193 7.58196 6.64193Z" fill="#EF3240"/>
<path d="M15.2871 9.51758C15.2871 9.34077 15.2168 9.1712 15.0918 9.04618C14.9668 8.92115 14.7972 8.85091 14.6204 8.85091H7.58196C7.40515 8.85091 7.23558 8.92115 7.11056 9.04618C6.98553 9.1712 6.91529 9.34077 6.91529 9.51758C6.91529 9.69439 6.98553 9.86396 7.11056 9.98898C7.23558 10.114 7.40515 10.1842 7.58196 10.1842H14.6204C14.7972 10.1842 14.9668 10.114 15.0918 9.98898C15.2168 9.86395 15.2871 9.69439 15.2871 9.51758Z" fill="#EF3240"/>
<path d="M7.58196 12.3939C7.40515 12.3939 7.23558 12.4641 7.11056 12.5891C6.98553 12.7142 6.91529 12.8837 6.91529 13.0605C6.91529 13.2374 6.98553 13.4069 7.11056 13.532C7.23558 13.657 7.40515 13.7272 7.58196 13.7272H10.7815C10.9583 13.7272 11.1279 13.657 11.2529 13.532C11.3779 13.4069 11.4482 13.2374 11.4482 13.0605C11.4482 12.8837 11.3779 12.7142 11.2529 12.5891C11.1279 12.4641 10.9583 12.3939 10.7815 12.3939H7.58196Z" fill="#EF3240"/>
<path d="M16.3743 11.6416C15.9194 11.6416 15.4747 11.7766 15.0964 12.0293C14.7181 12.2821 14.4233 12.6414 14.2492 13.0617C14.0752 13.482 14.0296 13.9445 14.1184 14.3907C14.2072 14.8369 14.4262 15.2468 14.7479 15.5684C15.0696 15.8901 15.4795 16.1092 15.9257 16.198C16.3719 16.2867 16.8344 16.2412 17.2547 16.0671C17.675 15.893 18.0343 15.5982 18.287 15.22C18.5398 14.8417 18.6747 14.397 18.6748 13.9421C18.6741 13.3322 18.4315 12.7474 18.0002 12.3162C17.5689 11.8849 16.9842 11.6423 16.3743 11.6416ZM16.3743 14.9089C16.1831 14.9088 15.9962 14.852 15.8373 14.7458C15.6783 14.6395 15.5545 14.4885 15.4813 14.3118C15.4082 14.1351 15.3891 13.9408 15.4265 13.7532C15.4638 13.5657 15.5559 13.3935 15.6911 13.2583C15.8263 13.1231 15.9986 13.0311 16.1861 12.9938C16.3737 12.9565 16.5681 12.9757 16.7447 13.0489C16.9213 13.1221 17.0723 13.246 17.1785 13.405C17.2847 13.564 17.3414 13.7509 17.3414 13.9421C17.3411 14.1984 17.2391 14.4442 17.0578 14.6255C16.8765 14.8067 16.6307 14.9086 16.3743 14.9089Z" fill="#EF3240"/>
<path d="M12.972 22C13.0595 22 13.1462 21.9828 13.2271 21.9493C13.308 21.9158 13.3815 21.8667 13.4434 21.8048C13.5053 21.7429 13.5544 21.6694 13.5879 21.5885C13.6214 21.5076 13.6387 21.4209 13.6386 21.3333C13.6386 20.6077 13.9269 19.9119 14.4399 19.3988C14.953 18.8857 15.6489 18.5975 16.3745 18.5975C17.1001 18.5975 17.7959 18.8857 18.309 19.3988C18.8221 19.9119 19.1103 20.6077 19.1103 21.3333C19.1103 21.5101 19.1805 21.6797 19.3056 21.8047C19.4306 21.9298 19.6002 22 19.777 22C19.9538 22 20.1234 21.9298 20.2484 21.8047C20.3734 21.6797 20.4436 21.5101 20.4436 21.3333C20.4436 20.2541 20.0149 19.2191 19.2518 18.456C18.4887 17.6929 17.4537 17.2642 16.3745 17.2642C15.2953 17.2642 14.2602 17.6929 13.4971 18.456C12.734 19.2191 12.3053 20.2541 12.3053 21.3333C12.3053 21.4209 12.3225 21.5076 12.356 21.5885C12.3895 21.6694 12.4386 21.7429 12.5005 21.8048C12.5624 21.8667 12.6359 21.9158 12.7168 21.9493C12.7977 21.9828 12.8844 22 12.972 22Z" fill="#EF3240"/>
<path d="M3.55627 5.31966V17.2585C3.55724 18.1386 3.9073 18.9824 4.52965 19.6048C5.15201 20.2271 5.99582 20.5772 6.87596 20.5781H10.9235C11.1003 20.5781 11.2699 20.5079 11.3949 20.3829C11.5199 20.2578 11.5902 20.0883 11.5902 19.9115C11.5902 19.7346 11.5199 19.5651 11.3949 19.4401C11.2699 19.315 11.1003 19.2448 10.9235 19.2448H6.87596C6.34934 19.2442 5.84446 19.0347 5.47208 18.6623C5.0997 18.29 4.89023 17.7851 4.88961 17.2585V5.31966C4.89017 4.79302 5.09962 4.28811 5.47201 3.91572C5.84441 3.54333 6.34932 3.33388 6.87596 3.33333H15.3265C15.8531 3.33389 16.358 3.54334 16.7304 3.91573C17.1028 4.28812 17.3122 4.79302 17.3128 5.31966V10.5192C17.3128 10.696 17.383 10.8656 17.5081 10.9906C17.6331 11.1156 17.8026 11.1859 17.9795 11.1859C18.1563 11.1859 18.3258 11.1156 18.4509 10.9906C18.5759 10.8656 18.6461 10.696 18.6461 10.5192V5.31966C18.6451 4.43954 18.295 3.59577 17.6727 2.97343C17.0504 2.35109 16.2066 2.00102 15.3265 2H6.87596C5.99584 2.00101 5.15206 2.35108 4.52971 2.97342C3.90737 3.59576 3.55729 4.43954 3.55627 5.31966Z" stroke="#EF3240" stroke-width="0.444444" mask="url(#path-1-outside-1_326_149)"/>
<path d="M7.58196 6.64193H14.6204C14.7972 6.64193 14.9668 6.57169 15.0918 6.44666C15.2168 6.32164 15.2871 6.15207 15.2871 5.97526C15.2871 5.79845 15.2168 5.62888 15.0918 5.50386C14.9668 5.37883 14.7972 5.30859 14.6204 5.30859H7.58196C7.40515 5.30859 7.23558 5.37883 7.11056 5.50386C6.98553 5.62888 6.91529 5.79845 6.91529 5.97526C6.91529 6.15207 6.98553 6.32164 7.11056 6.44666C7.23558 6.57169 7.40515 6.64193 7.58196 6.64193Z" stroke="#EF3240" stroke-width="0.444444" mask="url(#path-1-outside-1_326_149)"/>
<path d="M15.2871 9.51758C15.2871 9.34077 15.2168 9.1712 15.0918 9.04618C14.9668 8.92115 14.7972 8.85091 14.6204 8.85091H7.58196C7.40515 8.85091 7.23558 8.92115 7.11056 9.04618C6.98553 9.1712 6.91529 9.34077 6.91529 9.51758C6.91529 9.69439 6.98553 9.86396 7.11056 9.98898C7.23558 10.114 7.40515 10.1842 7.58196 10.1842H14.6204C14.7972 10.1842 14.9668 10.114 15.0918 9.98898C15.2168 9.86395 15.2871 9.69439 15.2871 9.51758Z" stroke="#EF3240" stroke-width="0.444444" mask="url(#path-1-outside-1_326_149)"/>
<path d="M7.58196 12.3939C7.40515 12.3939 7.23558 12.4641 7.11056 12.5891C6.98553 12.7142 6.91529 12.8837 6.91529 13.0605C6.91529 13.2374 6.98553 13.4069 7.11056 13.532C7.23558 13.657 7.40515 13.7272 7.58196 13.7272H10.7815C10.9583 13.7272 11.1279 13.657 11.2529 13.532C11.3779 13.4069 11.4482 13.2374 11.4482 13.0605C11.4482 12.8837 11.3779 12.7142 11.2529 12.5891C11.1279 12.4641 10.9583 12.3939 10.7815 12.3939H7.58196Z" stroke="#EF3240" stroke-width="0.444444" mask="url(#path-1-outside-1_326_149)"/>
<path d="M16.3743 11.6416C15.9194 11.6416 15.4747 11.7766 15.0964 12.0293C14.7181 12.2821 14.4233 12.6414 14.2492 13.0617C14.0752 13.482 14.0296 13.9445 14.1184 14.3907C14.2072 14.8369 14.4262 15.2468 14.7479 15.5684C15.0696 15.8901 15.4795 16.1092 15.9257 16.198C16.3719 16.2867 16.8344 16.2412 17.2547 16.0671C17.675 15.893 18.0343 15.5982 18.287 15.22C18.5398 14.8417 18.6747 14.397 18.6748 13.9421C18.6741 13.3322 18.4315 12.7474 18.0002 12.3162C17.5689 11.8849 16.9842 11.6423 16.3743 11.6416ZM16.3743 14.9089C16.1831 14.9088 15.9962 14.852 15.8373 14.7458C15.6783 14.6395 15.5545 14.4885 15.4813 14.3118C15.4082 14.1351 15.3891 13.9408 15.4265 13.7532C15.4638 13.5657 15.5559 13.3935 15.6911 13.2583C15.8263 13.1231 15.9986 13.0311 16.1861 12.9938C16.3737 12.9565 16.5681 12.9757 16.7447 13.0489C16.9213 13.1221 17.0723 13.246 17.1785 13.405C17.2847 13.564 17.3414 13.7509 17.3414 13.9421C17.3411 14.1984 17.2391 14.4442 17.0578 14.6255C16.8765 14.8067 16.6307 14.9086 16.3743 14.9089Z" stroke="#EF3240" stroke-width="0.444444" mask="url(#path-1-outside-1_326_149)"/>
<path d="M12.972 22C13.0595 22 13.1462 21.9828 13.2271 21.9493C13.308 21.9158 13.3815 21.8667 13.4434 21.8048C13.5053 21.7429 13.5544 21.6694 13.5879 21.5885C13.6214 21.5076 13.6387 21.4209 13.6386 21.3333C13.6386 20.6077 13.9269 19.9119 14.4399 19.3988C14.953 18.8857 15.6489 18.5975 16.3745 18.5975C17.1001 18.5975 17.7959 18.8857 18.309 19.3988C18.8221 19.9119 19.1103 20.6077 19.1103 21.3333C19.1103 21.5101 19.1805 21.6797 19.3056 21.8047C19.4306 21.9298 19.6002 22 19.777 22C19.9538 22 20.1234 21.9298 20.2484 21.8047C20.3734 21.6797 20.4436 21.5101 20.4436 21.3333C20.4436 20.2541 20.0149 19.2191 19.2518 18.456C18.4887 17.6929 17.4537 17.2642 16.3745 17.2642C15.2953 17.2642 14.2602 17.6929 13.4971 18.456C12.734 19.2191 12.3053 20.2541 12.3053 21.3333C12.3053 21.4209 12.3225 21.5076 12.356 21.5885C12.3895 21.6694 12.4386 21.7429 12.5005 21.8048C12.5624 21.8667 12.6359 21.9158 12.7168 21.9493C12.7977 21.9828 12.8844 22 12.972 22Z" stroke="#EF3240" stroke-width="0.444444" mask="url(#path-1-outside-1_326_149)"/>
</svg>
