<svg viewBox="0 0 66 60" xmlns="http://www.w3.org/2000/svg">
<path d="M9.06913 54.3671C11.1684 55.9085 13.5755 57.0855 16.0946 57.9823C16.7104 58.2064 17.3261 58.4026 17.9419 58.5708C21.2167 59.4956 24.6315 59.944 27.9343 60C37.2269 60.1121 46.5755 56.8613 53.7969 51.0042C54.5246 50.4157 55.2243 49.7992 55.8961 49.1546C57.9953 47.1649 59.8986 44.979 61.4661 42.5128C61.774 42.0364 62.0539 41.56 62.3338 41.0836C63.0335 39.8505 63.6493 38.5614 64.1811 37.2163C66.1404 32.2279 66.7002 26.6791 64.8528 21.6348C64.6569 21.1023 64.405 20.5979 64.1811 20.0934C63.6493 18.9444 63.0615 17.8515 62.3338 16.8146C59.3389 12.5549 54.8885 9.44419 49.8503 7.8468C41.7053 5.32461 32.7485 6.8099 25.0513 10.1448C22.5322 11.2377 20.1531 12.5829 17.9419 14.1523C17.774 14.2924 17.578 14.4045 17.3821 14.5166C17.578 14.2924 17.746 14.0962 17.9419 13.872C19.8732 11.7422 22.0004 9.83653 24.2116 8.26717C26.1709 6.89398 27.0946 4.37179 25.807 2.15787C25.1633 1.12097 23.9597 0.336291 22.6722 0.0840729C22.1124 -0.0280243 21.5246 -0.0280243 20.9928 0.0840729C20.545 0.168146 20.0971 0.336291 19.7053 0.616534C19.1175 1.0369 18.5297 1.48529 17.9419 1.93368C17.3261 2.41009 16.7104 2.91453 16.0946 3.44699C6.80195 11.3498 0.0564081 23.036 0.000428416 35.4227C-0.0275614 40.4671 1.31595 45.2032 4.03096 49.1546C4.4788 49.7992 4.92664 50.4157 5.43045 51.0042C6.49407 52.2373 7.69763 53.3582 9.06913 54.3671ZM42.489 15.5535C47.3592 15.8057 52.3974 17.8795 55.0844 21.915C57.8274 26.0626 57.4635 31.163 55.1684 35.6189C51.8936 42.0084 45.9317 46.6885 39.3541 49.1546C36.863 50.0794 34.288 50.6959 31.7129 50.9482C31.405 50.9762 31.0971 50.9762 30.8172 51.0042C29.3618 51.0883 27.8783 51.1163 26.3668 51.0042C23.5399 50.808 20.6849 50.2195 18.1098 49.1546C18.0539 49.1266 17.9979 49.1266 17.9419 49.0986C17.2981 48.8183 16.6824 48.5381 16.0946 48.2298C12.4559 46.2121 9.68491 43.0453 9.04114 38.3372C8.70526 35.9271 8.81722 33.489 9.20908 31.0789C11.3363 32.0878 13.5755 31.163 14.919 29.3134C15.2829 28.809 15.6747 28.3045 16.0946 27.8001C16.6824 27.0995 17.2981 26.3989 17.9419 25.7543C24.2676 19.1686 33.4203 15.0771 42.489 15.5535Z" fill="currentColor"/>
</svg>
