<svg viewBox="0 0 80 80" fill="none" xmlns="http://www.w3.org/2000/svg">
<path d="M75.4105 16.5977L73.4644 18.8881L70.4742 18.5836L72.0514 21.142L70.8377 23.8916L73.7585 23.1823L75.9986 25.1861L76.2266 22.1894L78.8247 20.6783L76.0449 19.5355L75.4105 16.5977Z" fill="#FFE966"/>
<path d="M30.4389 1L29.3374 4.61734L25.7327 5.76062L28.8328 7.92609L28.8063 11.7072L31.8239 9.42828L35.4122 10.622L34.177 7.04797L36.4213 4.00453L32.6403 4.07469L30.4389 1Z" fill="#FFE966"/>
<path d="M55.6146 60.5371L54.2219 63.4174L51.0594 63.9032L53.3687 66.1177L52.8535 69.2754L55.6734 67.7635L58.5176 69.2293L57.951 66.0804L60.224 63.8287L57.054 63.3945L55.6146 60.5371Z" fill="#FFE966"/>
<path d="M4.64996 58.3613L3.7723 61.1582L0.970581 62.0209L3.35964 63.7198L3.31449 66.6507L5.66855 64.9037L8.4423 65.8524L7.50808 63.074L9.26761 60.7293L6.33621 60.759L4.64996 58.3613Z" fill="#FFE966"/>
<path d="M17.2296 55.0888C16.6201 54.8675 15.9456 55.1791 15.7231 55.7838C15.1479 57.3465 14.8121 59.0433 14.5837 60.3472C14.4726 60.9813 14.9009 61.5847 15.5401 61.6949C15.6082 61.7066 15.6757 61.7122 15.7426 61.7122C16.3032 61.7122 16.7995 61.3127 16.8987 60.7461C17.1104 59.5379 17.4189 57.9727 17.9301 56.5833C18.1529 55.9786 17.8392 55.3094 17.2296 55.0888Z" fill="#FF70EA"/>
<path d="M60.8937 45.5363C57.6029 41.6052 53.8852 38.432 49.8441 36.1047C46.2374 34.0275 43.0321 32.9997 40.7512 32.49C41.2819 32.215 41.8115 31.9494 42.3351 31.6877C42.9271 31.4775 43.5224 31.2516 44.0987 31.0328C46.1462 30.2556 48.0801 29.5217 50.0687 29.3558C50.7152 29.3019 51.1958 28.7341 51.1418 28.0875C51.0879 27.4411 50.5208 26.9575 49.8735 27.0144C47.5552 27.2077 45.3741 28.0355 43.2649 28.8363C42.6787 29.0588 42.0724 29.2888 41.4835 29.4967C41.4376 29.513 41.3926 29.5319 41.3491 29.5537C40.8912 29.7827 40.4282 30.0148 39.9627 30.2533C41.0649 28.3266 42.7393 25.792 45.066 23.2706C47.8097 20.297 50.9135 17.9216 54.2908 16.2098C58.501 14.0759 63.1629 12.9692 68.1466 12.9202C68.7954 12.9138 69.3162 12.3827 69.3099 11.7336C69.3035 11.0887 68.7788 10.5703 68.1354 10.5703C68.1315 10.5703 68.1274 10.5703 68.1235 10.5703C62.7557 10.6233 57.7277 11.8239 53.1788 14.1391C49.5447 15.9887 46.2137 18.5472 43.278 21.7436C41.3757 23.8147 39.8944 25.8727 38.7837 27.6395C39.0332 25.92 39.3983 24.1059 39.8896 22.1409C39.8994 22.1019 39.9071 22.0627 39.9127 22.023C39.9343 21.9728 39.9733 21.8952 40.0077 21.8398C40.3496 21.2884 40.1796 20.5641 39.6282 20.2223C39.0768 19.88 38.3524 20.0505 38.0107 20.6017C37.8713 20.8267 37.6508 21.2348 37.5907 21.6491C37.0376 23.8716 36.6382 25.9159 36.3808 27.8556C35.6665 26.3659 34.7326 24.6613 33.5404 22.91C28.9321 16.1405 22.6443 11.9558 15.3571 10.8083C14.7162 10.7084 14.1147 11.1452 14.0138 11.7862C13.9129 12.427 14.3507 13.0286 14.9916 13.1295C21.6935 14.1847 27.2668 17.8997 31.5566 24.1714C33.0079 26.2931 34.0591 28.3653 34.7802 30.0142C33.5587 29.2463 32.026 28.3763 30.2497 27.5611C24.1002 24.7388 17.969 23.9594 12.5183 25.3067C11.8885 25.4625 11.504 26.0994 11.6597 26.7292C11.8155 27.3592 12.4529 27.7436 13.0822 27.5878C19.2868 26.0534 25.2777 27.8734 29.2112 29.6698C30.4944 30.2559 31.6483 30.8778 32.6394 31.4641C30.1151 31.3539 26.7922 31.4586 23.141 32.2252C18.5605 33.1869 14.4193 34.9966 10.8324 37.6042C6.35506 40.8591 2.74803 45.3619 0.111309 50.9873C-0.164004 51.5748 0.0889652 52.2744 0.676465 52.5497C0.837715 52.6253 1.00725 52.6611 1.17428 52.6611C1.61584 52.6611 2.03912 52.4108 2.23881 51.9845C4.69647 46.7412 8.03771 42.5533 12.1699 39.537C15.4743 37.125 19.2988 35.4447 23.5371 34.5431C26.5818 33.8955 29.4107 33.747 31.6793 33.7936C30.1408 34.5306 28.6701 35.4453 27.2483 36.5509C27.2441 36.5542 27.2399 36.5575 27.2357 36.5609C22.8162 40.0962 20.2427 44.698 18.4944 48.3119C18.2119 48.8959 18.4563 49.5984 19.0404 49.8811C19.2052 49.9608 19.3796 49.9986 19.5512 49.9986C19.9876 49.9986 20.4068 49.7542 20.6096 49.335C22.249 45.9461 24.6501 41.6411 28.6971 38.4009C30.3926 37.0831 32.114 36.0816 33.9608 35.3497C30.7833 40.2377 28.6318 47.707 27.5505 57.6339C26.5685 66.6489 26.8766 74.4877 26.8799 74.5658C26.906 75.1975 27.4265 75.6922 28.0529 75.6922C28.0691 75.6922 28.0857 75.6919 28.1021 75.6911C28.7504 75.6645 29.2543 75.1173 29.2276 74.4689C29.2155 74.1752 28.1682 45.9642 37.0652 35.0681C39.8072 39.3059 43.0033 46.0142 45.1782 59.2889C45.2726 59.8648 45.7708 60.2739 46.3362 60.2739C46.3991 60.2739 46.4632 60.2689 46.5276 60.2583C47.1677 60.1533 47.6019 59.5492 47.4969 58.9089C46.3074 51.6475 44.3319 42.512 39.5615 34.6448C39.8691 34.7042 40.2004 34.7742 40.5566 34.8589C42.4638 35.3117 45.4426 36.262 48.8027 38.2172C52.5823 40.4166 56.068 43.4152 59.1627 47.13C63.0496 51.7956 66.3296 57.6119 68.9112 64.4173C69.0894 64.8869 69.5358 65.1758 70.0099 65.1758C70.1485 65.1758 70.2894 65.1511 70.4265 65.0991C71.0332 64.8689 71.3383 64.1905 71.1083 63.5838C68.4177 56.4905 64.981 50.4186 60.8937 45.5363Z" fill="#FF70EA"/>
<path d="M79.5661 35.578C72.7658 30.0931 65.1452 27.0436 57.5278 26.7586C57.5128 26.7581 57.4978 26.7578 57.4828 26.7578C56.8544 26.7578 56.3335 27.2511 56.3096 27.8794C56.2852 28.5225 56.791 29.0636 57.4394 29.0878C64.5432 29.3534 71.6819 32.2231 78.0836 37.3864C78.3014 37.5622 78.5635 37.6475 78.8241 37.6475C79.1655 37.6475 79.5043 37.5006 79.7364 37.2173C80.146 36.718 80.0696 35.9839 79.5661 35.578Z" fill="#FF70EA"/>
<path d="M41.1919 15.5742C41.3628 15.6605 41.5447 15.7014 41.7241 15.7014C42.1519 15.7014 42.5646 15.4686 42.7721 15.0645C44.1897 12.303 45.9194 9.96516 47.9136 8.11594C48.5302 7.54407 49.1825 7.00938 49.853 6.52672C50.3782 6.14875 50.495 5.42016 50.1139 4.89922C49.7328 4.37797 48.9978 4.26219 48.4732 4.64032C47.7243 5.17922 46.9958 5.7761 46.3086 6.4136C44.1144 8.44844 42.22 11.0031 40.678 14.007C40.3838 14.5805 40.6136 15.2822 41.1919 15.5742Z" fill="#FF70EA"/>
<path d="M1.1747 35.029C1.49002 35.029 1.80439 34.904 2.03595 34.6566C3.86924 32.6987 5.84783 31.1091 7.91642 29.9322C8.47924 29.6119 8.67392 28.8998 8.35095 28.3416C8.02814 27.7832 7.31002 27.5904 6.74736 27.9105C4.47314 29.2044 2.30877 30.9407 0.314236 33.0707C-0.127327 33.5421 -0.099827 34.2796 0.375642 34.7176C0.601736 34.926 0.888611 35.029 1.1747 35.029Z" fill="#FF70EA"/>
<path d="M69.0726 38.6602C70.5845 38.6602 70.587 36.3105 69.0726 36.3105C67.5607 36.3105 67.5582 38.6602 69.0726 38.6602Z" fill="#33B8FF"/>
<path d="M74.9311 54.3595C76.443 54.3595 76.4455 52.0098 74.9311 52.0098C73.4192 52.0098 73.4167 54.3595 74.9311 54.3595Z" fill="#33B8FF"/>
<path d="M37.9049 62.0938C39.4167 62.0938 39.4192 59.7441 37.9049 59.7441C36.393 59.744 36.3905 62.0938 37.9049 62.0938Z" fill="#33B8FF"/>
<path d="M15.7413 72.7618C17.2532 72.7618 17.2557 70.4121 15.7413 70.4121C14.2293 70.4121 14.2268 72.7618 15.7413 72.7618Z" fill="#33B8FF"/>
<path d="M7.90901 18.7423C9.42089 18.7423 9.42339 16.3926 7.90901 16.3926C6.39714 16.3926 6.39464 18.7423 7.90901 18.7423Z" fill="#33B8FF"/>
<path d="M58.5271 7.73055C60.0389 7.73055 60.0414 5.38086 58.5271 5.38086C57.0152 5.3807 57.0127 7.73055 58.5271 7.73055Z" fill="#33B8FF"/>
</svg>
