<svg viewBox="0 0 400 400" fill="none" xmlns="http://www.w3.org/2000/svg">
<path d="M235.875 315.21L398.042 344.168C398.042 344.168 357.125 384.668 193.125 353.252C193.125 353.21 150.833 300.043 235.875 315.21Z" fill="url(#paint0_linear_317_164)"/>
<path d="M184.75 115.959C184.75 115.959 218 133.376 197.417 187.876C192.667 200.417 136.583 304.126 166.875 338.751C172.208 344.834 209.625 378.792 235.875 315.209L323.833 330.834C323.833 330.834 317.042 324.042 328.125 292.626C339.208 261.167 351.875 232.459 350.958 211.876C350.042 191.292 337.833 184.501 329.458 179.751C321.125 175.001 184.75 115.959 184.75 115.959Z" fill="url(#paint1_linear_317_164)"/>
<path d="M215.292 204.668L313.708 249.251L211.625 213.835C209.042 212.96 207.667 210.126 208.583 207.543C209.542 204.835 212.667 203.46 215.292 204.668Z" fill="url(#paint2_linear_317_164)"/>
<path d="M201.791 238L320.041 276.875L198.708 248.958C195.666 248.25 193.749 245.208 194.458 242.125C195.166 238.917 198.624 236.958 201.791 238Z" fill="url(#paint3_linear_317_164)"/>
<path d="M202.667 276.626L308.084 300.335L200.959 286.335C198.251 286.001 196.334 283.501 196.709 280.793C197.042 277.96 199.876 276.001 202.667 276.626Z" fill="url(#paint4_linear_317_164)"/>
<path d="M116.417 169.958L2.08398 156.791C2.08398 156.791 21.3756 192.083 137.417 203.999C137.417 203.999 176.417 176.874 116.417 169.958Z" fill="url(#paint5_linear_317_164)"/>
<path d="M190.626 46.875C190.626 46.875 164.876 51.875 167.71 92.4583C168.376 101.792 185.085 182.458 157.876 199.542C153.085 202.542 121.251 217.75 116.418 169.958L54.418 162.75C54.418 162.75 60.3346 159.583 59.2096 136.292C58.0846 113.042 55.3763 91.25 60.1263 77.6667C64.8763 64.0833 74.418 62 80.9596 60.5C87.5013 59 190.626 46.875 190.626 46.875Z" fill="url(#paint6_linear_317_164)"/>
<path d="M152.376 100.125L77.543 110.209L152.96 107C154.876 106.917 156.335 105.292 156.251 103.417C156.21 101.375 154.376 99.8337 152.376 100.125Z" fill="url(#paint7_linear_317_164)"/>
<path d="M154.751 125.126L67.793 127.417L154.585 133.084C156.793 133.209 158.668 131.584 158.793 129.376C158.96 127.042 157.043 125.084 154.751 125.126Z" fill="url(#paint8_linear_317_164)"/>
<path d="M146.376 150.792L71.084 145.5L145.584 157.625C147.459 157.917 149.251 156.667 149.542 154.792C149.876 152.833 148.417 150.958 146.376 150.792Z" fill="url(#paint9_linear_317_164)"/>
<path d="M358.46 189.542C358.46 182.126 352.46 176.126 345.043 176.126C352.46 176.126 358.46 170.126 358.46 162.709C358.46 170.126 364.46 176.126 371.876 176.126C364.46 176.167 358.46 182.167 358.46 189.542Z" fill="url(#paint10_linear_317_164)"/>
<path d="M385.333 168.71C385.333 165.418 382.667 162.751 379.375 162.751C382.667 162.751 385.333 160.085 385.333 156.793C385.333 160.085 388 162.751 391.292 162.751C388 162.751 385.333 165.418 385.333 168.71Z" fill="url(#paint11_linear_317_164)"/>
<path d="M50.8756 68.1673C50.8756 60.7506 44.8757 54.7507 37.459 54.7507C44.8757 54.7507 50.8756 48.7507 50.8756 41.334C50.8756 48.7507 56.8757 54.7507 64.2923 54.7507C56.8757 54.7923 50.8756 60.7923 50.8756 68.1673Z" fill="url(#paint12_linear_317_164)"/>
<path d="M31.5013 46.5007C31.5013 43.209 28.8346 40.5423 25.543 40.5423C28.8346 40.5423 31.5013 37.8757 31.5013 34.584C31.5013 37.8757 34.168 40.5423 37.4596 40.5423C34.168 40.5423 31.5013 43.209 31.5013 46.5007Z" fill="url(#paint13_linear_317_164)"/>
<defs>
<linearGradient id="paint0_linear_317_164" x1="182.6" y1="338.83" x2="398.028" y2="338.83" gradientUnits="userSpaceOnUse">
<stop stop-color="#848E9F"/>
<stop offset="1" stop-color="#AEB4BF"/>
</linearGradient>
<linearGradient id="paint1_linear_317_164" x1="157.943" y1="234.59" x2="351.03" y2="234.59" gradientUnits="userSpaceOnUse">
<stop stop-color="#DDDFE3"/>
<stop offset="1" stop-color="#E9EAEC"/>
</linearGradient>
<linearGradient id="paint2_linear_317_164" x1="207.221" y1="221.952" x2="315.258" y2="231.114" gradientUnits="userSpaceOnUse">
<stop stop-color="#A3AAB6"/>
<stop offset="1" stop-color="#808A9D"/>
</linearGradient>
<linearGradient id="paint3_linear_317_164" x1="193.617" y1="252.258" x2="321.167" y2="261.954" gradientUnits="userSpaceOnUse">
<stop stop-color="#A3AAB6"/>
<stop offset="1" stop-color="#808A9D"/>
</linearGradient>
<linearGradient id="paint4_linear_317_164" x1="196.644" y1="288.433" x2="308.075" y2="288.433" gradientUnits="userSpaceOnUse">
<stop stop-color="#A3AAB6"/>
<stop offset="1" stop-color="#808A9D"/>
</linearGradient>
<linearGradient id="paint5_linear_317_164" x1="147.343" y1="196.463" x2="3.15353" y2="153.231" gradientUnits="userSpaceOnUse">
<stop stop-color="#848E9F"/>
<stop offset="1" stop-color="#AEB4BF"/>
</linearGradient>
<linearGradient id="paint6_linear_317_164" x1="184.766" y1="131.642" x2="55.5293" y2="92.8944" gradientUnits="userSpaceOnUse">
<stop stop-color="#DDDFE3"/>
<stop offset="1" stop-color="#E9EAEC"/>
</linearGradient>
<linearGradient id="paint7_linear_317_164" x1="154.32" y1="113.294" x2="80.1689" y2="97.747" gradientUnits="userSpaceOnUse">
<stop stop-color="#A3AAB6"/>
<stop offset="1" stop-color="#808A9D"/>
</linearGradient>
<linearGradient id="paint8_linear_317_164" x1="157.342" y1="136.312" x2="70.0262" y2="117.202" gradientUnits="userSpaceOnUse">
<stop stop-color="#A3AAB6"/>
<stop offset="1" stop-color="#808A9D"/>
</linearGradient>
<linearGradient id="paint9_linear_317_164" x1="148.057" y1="159.914" x2="73.4748" y2="137.552" gradientUnits="userSpaceOnUse">
<stop stop-color="#A3AAB6"/>
<stop offset="1" stop-color="#808A9D"/>
</linearGradient>
<linearGradient id="paint10_linear_317_164" x1="345.074" y1="176.159" x2="371.882" y2="176.159" gradientUnits="userSpaceOnUse">
<stop stop-color="#DDDFE3"/>
<stop offset="1" stop-color="#E9EAEC"/>
</linearGradient>
<linearGradient id="paint11_linear_317_164" x1="379.384" y1="162.756" x2="391.295" y2="162.756" gradientUnits="userSpaceOnUse">
<stop stop-color="#DDDFE3"/>
<stop offset="1" stop-color="#E9EAEC"/>
</linearGradient>
<linearGradient id="paint12_linear_317_164" x1="37.4604" y1="54.7762" x2="64.2679" y2="54.7762" gradientUnits="userSpaceOnUse">
<stop stop-color="#DDDFE3"/>
<stop offset="1" stop-color="#E9EAEC"/>
</linearGradient>
<linearGradient id="paint13_linear_317_164" x1="25.5505" y1="40.5393" x2="37.4611" y2="40.5393" gradientUnits="userSpaceOnUse">
<stop stop-color="#DDDFE3"/>
<stop offset="1" stop-color="#E9EAEC"/>
</linearGradient>
</defs>
</svg>
