<svg viewBox="0 0 60 60" xmlns="http://www.w3.org/2000/svg">
<path d="M31.8199 4.52673L41.4512 3.37604C41.9672 3.30308 42.4547 3.59771 42.5339 4.03041C42.9212 6.14582 41.6841 8.2377 39.439 9.26356L31.7977 11.3734L31.8199 4.52673Z" fill="#FF2C5C"/>
<path d="M28.2015 4.52699L18.5479 3.37631C18.0319 3.30334 17.5445 3.59797 17.4653 4.03067L17.3658 4.57403C17.0382 6.36328 18.0846 8.13262 19.9835 9.00037L28.2015 11.3738L28.2015 4.52699Z" fill="#FF2C5C"/>
<path d="M36.688 10.0238L36.7077 3.94321L31.8199 4.52673L31.7977 11.3734L36.688 10.0238Z" fill="#E62753"/>
<path d="M46.9668 22.5948C48.3208 22.5948 49.4532 23.62 49.5905 24.967C49.787 26.8938 49.8853 29.1598 49.8853 30.4602C49.8853 32.2392 49.7013 32.2106 49.3335 33.7435C49.2794 33.9692 49.0781 34.1291 48.8461 34.1291H45.0873C44.8553 34.1291 44.6541 33.9691 44.5999 33.7435C44.2321 32.2106 44.0482 32.2392 44.0482 30.4603C44.0482 29.1599 44.1464 26.8939 44.3429 24.9671C44.4804 23.6201 45.6128 22.5947 46.9668 22.5948Z" fill="#C3D3DB"/>
<path d="M13.0331 22.5948C14.3872 22.5948 15.5195 23.62 15.6569 24.967C15.8534 26.8938 15.9517 29.1598 15.9517 30.4602C15.9517 32.2392 15.7678 32.2105 15.3999 33.7435C15.3458 33.9692 15.1445 34.1291 14.9124 34.1291H11.1537C10.9216 34.1291 10.7204 33.9691 10.6662 33.7435C10.2984 32.2106 10.1145 32.2392 10.1145 30.4602C10.1145 29.1598 10.2127 26.8938 10.4092 24.967C10.5467 23.62 11.6791 22.5948 13.0331 22.5948Z" fill="#C3D3DB"/>
<path d="M32.0715 24.6733V37.9755L59.1488 23.8453C59.6814 23.5293 60 23.0044 60 22.443V18.9616C60 17.7957 58.6811 16.9772 57.4163 17.3583L32.0715 24.6733Z" fill="#FF2C5C"/>
<path d="M38.189 34.7829V22.9075L32.0715 24.6733V37.9755L38.189 34.7829Z" fill="#E62753"/>
<path d="M27.9285 24.673V37.9752L0.851237 23.845C0.318648 23.529 -4.28277e-08 23.0041 0 22.4427L2.42753e-06 18.9613C2.51649e-06 17.7954 1.31886 16.9769 2.58374 17.358L27.9285 24.673Z" fill="#FF2C5C"/>
<path d="M24.8221 46.6743L24.8222 24.3269C24.8222 20.5771 25.0667 16.8351 25.5527 13.1473L26.7907 3.75284C27.0772 1.57793 28.4268 6.00204e-08 30.0002 0C31.5736 -6.00204e-08 32.9231 1.57793 33.2097 3.75284L34.4477 13.1473C34.9337 16.8351 35.1781 20.577 35.1781 24.3269L35.1781 46.6743C35.1781 49.7293 34.6964 52.7563 33.7169 55.4834C32.8733 57.8318 31.6482 59.9996 30.0002 59.9996C28.3521 59.9996 27.127 57.8318 26.2835 55.4834C25.3037 52.7562 24.8221 49.7293 24.8221 46.6743Z" fill="#E0F3FC"/>
<path d="M30.0002 59.9996C30.5802 59.9996 31.1075 59.7299 31.5845 59.2794C30.693 58.4545 29.9767 56.994 29.4242 55.4558C28.4446 52.7288 27.9629 49.7018 27.963 46.6468V24.2994C27.963 20.5496 28.2075 16.8076 28.6935 13.1199L29.9316 3.72543C30.1138 2.3421 30.7265 1.20105 31.553 0.553134C31.0885 0.199421 30.5587 2.13057e-08 30.0002 0C28.4268 6.00204e-08 27.0772 1.57793 26.7907 3.75284L25.5527 13.1473C25.0667 16.8351 24.8222 20.5771 24.8222 24.3269L24.8221 46.6743C24.8221 49.7293 25.3037 52.7562 26.2835 55.4834C27.127 57.8318 28.3521 59.9996 30.0002 59.9996Z" fill="#C3D3DB"/>
<path d="M26.0357 49.7396V48.9765C26.0357 48.2678 33.9635 48.2678 33.9635 48.9765V49.7396C33.9635 50.2206 33.6863 50.6494 33.2717 50.8097C31.2057 51.6085 28.7935 51.6084 26.7274 50.8097C26.313 50.6494 26.0357 50.2206 26.0357 49.7396Z" fill="#51C4F5"/>
<path d="M29.4689 1.88348C29.6048 1.74753 29.7927 1.66337 30.0002 1.66344C30.4152 1.66344 30.7516 1.99987 30.7515 2.41479L30.7515 11.6945C30.7515 12.1095 30.4151 12.4459 30.0002 12.4458C29.5852 12.4458 29.2488 12.1094 29.2488 11.6945V2.41479C29.2488 2.20737 29.3329 2.01949 29.4689 1.88348Z" fill="#E62753"/>
</svg>
