<svg viewBox="0 0 50 50" fill="none" xmlns="http://www.w3.org/2000/svg">
<path d="M43.2087 50L25.2681 39.396L7 50V0H43.2087V50Z" fill="url(#paint0_linear_521_31)"/>
<path d="M18.224 17.424C18.288 15.712 18.848 14.392 19.904 13.464C20.96 12.536 22.392 12.072 24.2 12.072C25.4 12.072 26.424 12.28 27.272 12.696C28.136 13.112 28.784 13.68 29.216 14.4C29.664 15.12 29.888 15.928 29.888 16.824C29.888 17.88 29.624 18.744 29.096 19.416C28.568 20.072 27.952 20.52 27.248 20.76V20.856C28.16 21.16 28.88 21.664 29.408 22.368C29.936 23.072 30.2 23.976 30.2 25.08C30.2 26.072 29.968 26.952 29.504 27.72C29.056 28.472 28.392 29.064 27.512 29.496C26.648 29.928 25.616 30.144 24.416 30.144C22.496 30.144 20.96 29.672 19.808 28.728C18.672 27.784 18.072 26.36 18.008 24.456H21.992C22.008 25.16 22.208 25.72 22.592 26.136C22.976 26.536 23.536 26.736 24.272 26.736C24.896 26.736 25.376 26.56 25.712 26.208C26.064 25.84 26.24 25.36 26.24 24.768C26.24 24 25.992 23.448 25.496 23.112C25.016 22.76 24.24 22.584 23.168 22.584H22.4V19.248H23.168C23.984 19.248 24.64 19.112 25.136 18.84C25.648 18.552 25.904 18.048 25.904 17.328C25.904 16.752 25.744 16.304 25.424 15.984C25.104 15.664 24.664 15.504 24.104 15.504C23.496 15.504 23.04 15.688 22.736 16.056C22.448 16.424 22.28 16.88 22.232 17.424H18.224Z" fill="#FFF7EF"/>
<defs>
<linearGradient id="paint0_linear_521_31" x1="117.5" y1="103.5" x2="13.0019" y2="-18.5016" gradientUnits="userSpaceOnUse">
<stop stop-color="#A36F3A"/>
<stop offset="0.2877" stop-color="#3C2413"/>
<stop offset="0.4637" stop-color="#462F14"/>
<stop offset="0.8212" stop-color="#A36F3A"/>
<stop offset="1" stop-color="#744F28"/>
</linearGradient>
</defs>
</svg>
