<svg viewBox="0 0 50 50" fill="none" xmlns="http://www.w3.org/2000/svg">
<path d="M43.2087 50L25.2681 39.396L7 50V0H43.2087V50Z" fill="url(#paint0_linear_521_24)"/>
<path d="M18.936 26.712C19.48 26.28 19.728 26.08 19.68 26.112C21.248 24.816 22.48 23.752 23.376 22.92C24.288 22.088 25.056 21.216 25.68 20.304C26.304 19.392 26.616 18.504 26.616 17.64C26.616 16.984 26.464 16.472 26.16 16.104C25.856 15.736 25.4 15.552 24.792 15.552C24.184 15.552 23.704 15.784 23.352 16.248C23.016 16.696 22.848 17.336 22.848 18.168H18.888C18.92 16.808 19.208 15.672 19.752 14.76C20.312 13.848 21.04 13.176 21.936 12.744C22.848 12.312 23.856 12.096 24.96 12.096C26.864 12.096 28.296 12.584 29.256 13.56C30.232 14.536 30.72 15.808 30.72 17.376C30.72 19.088 30.136 20.68 28.968 22.152C27.8 23.608 26.312 25.032 24.504 26.424H30.984V29.76H18.936V26.712Z" fill="#FFF7EF"/>
<defs>
<linearGradient id="paint0_linear_521_24" x1="-8" y1="-19" x2="36.7288" y2="67.0734" gradientUnits="userSpaceOnUse">
<stop stop-color="#F6F6F6"/>
<stop offset="0.0625" stop-color="#F0F0F0"/>
<stop offset="0.125" stop-color="#EAEAEA"/>
<stop offset="0.1875" stop-color="#E4E4E4"/>
<stop offset="0.25" stop-color="#DEDEDE"/>
<stop offset="0.3125" stop-color="#D7D7D7"/>
<stop offset="0.375" stop-color="#D1D1D1"/>
<stop offset="0.4375" stop-color="#CBCBCB"/>
<stop offset="0.5" stop-color="#C5C5C5"/>
<stop offset="0.5625" stop-color="#BFBFBF"/>
<stop offset="0.625" stop-color="#B9B9B9"/>
<stop offset="0.6875" stop-color="#B3B3B3"/>
<stop offset="0.75" stop-color="#ADADAD"/>
<stop offset="0.8125" stop-color="#A6A6A6"/>
<stop offset="0.875" stop-color="#A0A0A0"/>
<stop offset="0.9375" stop-color="#9A9A9A"/>
<stop offset="1" stop-color="#949494"/>
</linearGradient>
</defs>
</svg>
