<svg viewBox="0 0 24 24" fill="none" xmlns="http://www.w3.org/2000/svg">
<mask id="path-1-outside-1_326_157" maskUnits="userSpaceOnUse" x="1" y="1" width="22" height="22" fill="black">
<rect fill="white" x="1" y="1" width="22" height="22"/>
<path d="M21.4444 10.75H16.4444V10.125C16.4446 10.0151 16.4191 9.90705 16.3703 9.8118C16.3215 9.71655 16.2513 9.63746 16.1667 9.5825L12.5556 7.2625V5.75H14.2222C14.3696 5.75 14.5109 5.68415 14.6151 5.56694C14.7192 5.44973 14.7778 5.29076 14.7778 5.125V3.25C14.7778 3.08424 14.7192 2.92527 14.6151 2.80806C14.5109 2.69085 14.3696 2.625 14.2222 2.625H12.5556C12.5556 2.45924 12.497 2.30027 12.3928 2.18306C12.2887 2.06585 12.1473 2 12 2C11.8527 2 11.7113 2.06585 11.6072 2.18306C11.503 2.30027 11.4444 2.45924 11.4444 2.625V7.2625L7.83333 9.5825C7.74872 9.63746 7.67848 9.71655 7.62971 9.8118C7.58094 9.90705 7.55536 10.0151 7.55556 10.125V10.75H2.55556C2.40821 10.75 2.26691 10.8158 2.16272 10.9331C2.05853 11.0503 2 11.2092 2 11.375V21.375C2 21.5408 2.05853 21.6997 2.16272 21.8169C2.26691 21.9342 2.40821 22 2.55556 22H21.4444C21.5918 22 21.7331 21.9342 21.8373 21.8169C21.9415 21.6997 22 21.5408 22 21.375V11.375C22 11.2092 21.9415 11.0503 21.8373 10.9331C21.7331 10.8158 21.5918 10.75 21.4444 10.75ZM13.6667 3.875V4.5H12.5556V3.875H13.6667ZM3.11111 12H7.55556V20.75H3.11111V12ZM8.66667 10.4875L12 8.345L15.3333 10.4875V20.75H14.2222V16.375C14.2222 16.2092 14.1637 16.0503 14.0595 15.9331C13.9553 15.8158 13.814 15.75 13.6667 15.75H10.8889C10.7415 15.75 10.6002 15.8158 10.4961 15.9331C10.3919 16.0503 10.3333 16.2092 10.3333 16.375V20.75H8.66667V10.4875ZM11.4444 20.75V17H13.1111V20.75H11.4444ZM20.8889 20.75H16.4444V12H20.8889V20.75Z"/>
</mask>
<path d="M21.4444 10.75H16.4444V10.125C16.4446 10.0151 16.4191 9.90705 16.3703 9.8118C16.3215 9.71655 16.2513 9.63746 16.1667 9.5825L12.5556 7.2625V5.75H14.2222C14.3696 5.75 14.5109 5.68415 14.6151 5.56694C14.7192 5.44973 14.7778 5.29076 14.7778 5.125V3.25C14.7778 3.08424 14.7192 2.92527 14.6151 2.80806C14.5109 2.69085 14.3696 2.625 14.2222 2.625H12.5556C12.5556 2.45924 12.497 2.30027 12.3928 2.18306C12.2887 2.06585 12.1473 2 12 2C11.8527 2 11.7113 2.06585 11.6072 2.18306C11.503 2.30027 11.4444 2.45924 11.4444 2.625V7.2625L7.83333 9.5825C7.74872 9.63746 7.67848 9.71655 7.62971 9.8118C7.58094 9.90705 7.55536 10.0151 7.55556 10.125V10.75H2.55556C2.40821 10.75 2.26691 10.8158 2.16272 10.9331C2.05853 11.0503 2 11.2092 2 11.375V21.375C2 21.5408 2.05853 21.6997 2.16272 21.8169C2.26691 21.9342 2.40821 22 2.55556 22H21.4444C21.5918 22 21.7331 21.9342 21.8373 21.8169C21.9415 21.6997 22 21.5408 22 21.375V11.375C22 11.2092 21.9415 11.0503 21.8373 10.9331C21.7331 10.8158 21.5918 10.75 21.4444 10.75ZM13.6667 3.875V4.5H12.5556V3.875H13.6667ZM3.11111 12H7.55556V20.75H3.11111V12ZM8.66667 10.4875L12 8.345L15.3333 10.4875V20.75H14.2222V16.375C14.2222 16.2092 14.1637 16.0503 14.0595 15.9331C13.9553 15.8158 13.814 15.75 13.6667 15.75H10.8889C10.7415 15.75 10.6002 15.8158 10.4961 15.9331C10.3919 16.0503 10.3333 16.2092 10.3333 16.375V20.75H8.66667V10.4875ZM11.4444 20.75V17H13.1111V20.75H11.4444ZM20.8889 20.75H16.4444V12H20.8889V20.75Z" fill="#EF3240"/>
<path d="M21.4444 10.75H16.4444V10.125C16.4446 10.0151 16.4191 9.90705 16.3703 9.8118C16.3215 9.71655 16.2513 9.63746 16.1667 9.5825L12.5556 7.2625V5.75H14.2222C14.3696 5.75 14.5109 5.68415 14.6151 5.56694C14.7192 5.44973 14.7778 5.29076 14.7778 5.125V3.25C14.7778 3.08424 14.7192 2.92527 14.6151 2.80806C14.5109 2.69085 14.3696 2.625 14.2222 2.625H12.5556C12.5556 2.45924 12.497 2.30027 12.3928 2.18306C12.2887 2.06585 12.1473 2 12 2C11.8527 2 11.7113 2.06585 11.6072 2.18306C11.503 2.30027 11.4444 2.45924 11.4444 2.625V7.2625L7.83333 9.5825C7.74872 9.63746 7.67848 9.71655 7.62971 9.8118C7.58094 9.90705 7.55536 10.0151 7.55556 10.125V10.75H2.55556C2.40821 10.75 2.26691 10.8158 2.16272 10.9331C2.05853 11.0503 2 11.2092 2 11.375V21.375C2 21.5408 2.05853 21.6997 2.16272 21.8169C2.26691 21.9342 2.40821 22 2.55556 22H21.4444C21.5918 22 21.7331 21.9342 21.8373 21.8169C21.9415 21.6997 22 21.5408 22 21.375V11.375C22 11.2092 21.9415 11.0503 21.8373 10.9331C21.7331 10.8158 21.5918 10.75 21.4444 10.75ZM13.6667 3.875V4.5H12.5556V3.875H13.6667ZM3.11111 12H7.55556V20.75H3.11111V12ZM8.66667 10.4875L12 8.345L15.3333 10.4875V20.75H14.2222V16.375C14.2222 16.2092 14.1637 16.0503 14.0595 15.9331C13.9553 15.8158 13.814 15.75 13.6667 15.75H10.8889C10.7415 15.75 10.6002 15.8158 10.4961 15.9331C10.3919 16.0503 10.3333 16.2092 10.3333 16.375V20.75H8.66667V10.4875ZM11.4444 20.75V17H13.1111V20.75H11.4444ZM20.8889 20.75H16.4444V12H20.8889V20.75Z" stroke="#EF3240" stroke-width="0.173913" mask="url(#path-1-outside-1_326_157)"/>
</svg>
