<svg viewBox="0 0 24 24" fill="none" xmlns="http://www.w3.org/2000/svg">
<mask id="path-1-outside-1_326_159" maskUnits="userSpaceOnUse" x="4.29346" y="8.39453" width="10" height="10" fill="black">
<rect fill="white" x="4.29346" y="8.39453" width="10" height="10"/>
<path d="M9.1529 17.2473C9.05337 17.2473 8.9534 17.2434 8.853 17.2361C6.85714 17.0836 5.29346 15.3316 5.29346 13.2466V11.4843C5.29346 11.2969 5.38739 11.1272 5.54509 11.0293C5.67436 10.9496 6.33922 10.5127 6.83775 9.66735C6.93513 9.50189 7.10662 9.39978 7.29621 9.39461C7.47934 9.39159 7.65342 9.47906 7.7564 9.63331C7.7801 9.66864 8.33723 10.4834 9.93194 10.8604C10.1638 10.9152 10.3068 11.1474 10.2521 11.3788C10.1974 11.6102 9.96383 11.7536 9.73373 11.6989C8.60826 11.4331 7.8038 10.9277 7.34189 10.4709C6.90626 11.0819 6.42626 11.4684 6.1548 11.6584V13.2466C6.1548 14.8839 7.3686 16.2584 8.91807 16.3769C9.46529 16.4183 10.0099 16.3136 10.4925 16.0719C11.4327 15.6113 12.048 14.7129 12.142 13.6676C12.1631 13.4306 12.3686 13.2514 12.6099 13.2772C12.8469 13.2988 13.0218 13.5077 13.0003 13.7451C12.8792 15.0929 12.0846 16.2511 10.8747 16.844C10.3443 17.1094 9.75356 17.2473 9.1529 17.2473Z"/>
</mask>
<path d="M9.1529 17.2473C9.05337 17.2473 8.9534 17.2434 8.853 17.2361C6.85714 17.0836 5.29346 15.3316 5.29346 13.2466V11.4843C5.29346 11.2969 5.38739 11.1272 5.54509 11.0293C5.67436 10.9496 6.33922 10.5127 6.83775 9.66735C6.93513 9.50189 7.10662 9.39978 7.29621 9.39461C7.47934 9.39159 7.65342 9.47906 7.7564 9.63331C7.7801 9.66864 8.33723 10.4834 9.93194 10.8604C10.1638 10.9152 10.3068 11.1474 10.2521 11.3788C10.1974 11.6102 9.96383 11.7536 9.73373 11.6989C8.60826 11.4331 7.8038 10.9277 7.34189 10.4709C6.90626 11.0819 6.42626 11.4684 6.1548 11.6584V13.2466C6.1548 14.8839 7.3686 16.2584 8.91807 16.3769C9.46529 16.4183 10.0099 16.3136 10.4925 16.0719C11.4327 15.6113 12.048 14.7129 12.142 13.6676C12.1631 13.4306 12.3686 13.2514 12.6099 13.2772C12.8469 13.2988 13.0218 13.5077 13.0003 13.7451C12.8792 15.0929 12.0846 16.2511 10.8747 16.844C10.3443 17.1094 9.75356 17.2473 9.1529 17.2473Z" fill="#EF3240"/>
<path d="M9.1529 17.2473C9.05337 17.2473 8.9534 17.2434 8.853 17.2361C6.85714 17.0836 5.29346 15.3316 5.29346 13.2466V11.4843C5.29346 11.2969 5.38739 11.1272 5.54509 11.0293C5.67436 10.9496 6.33922 10.5127 6.83775 9.66735C6.93513 9.50189 7.10662 9.39978 7.29621 9.39461C7.47934 9.39159 7.65342 9.47906 7.7564 9.63331C7.7801 9.66864 8.33723 10.4834 9.93194 10.8604C10.1638 10.9152 10.3068 11.1474 10.2521 11.3788C10.1974 11.6102 9.96383 11.7536 9.73373 11.6989C8.60826 11.4331 7.8038 10.9277 7.34189 10.4709C6.90626 11.0819 6.42626 11.4684 6.1548 11.6584V13.2466C6.1548 14.8839 7.3686 16.2584 8.91807 16.3769C9.46529 16.4183 10.0099 16.3136 10.4925 16.0719C11.4327 15.6113 12.048 14.7129 12.142 13.6676C12.1631 13.4306 12.3686 13.2514 12.6099 13.2772C12.8469 13.2988 13.0218 13.5077 13.0003 13.7451C12.8792 15.0929 12.0846 16.2511 10.8747 16.844C10.3443 17.1094 9.75356 17.2473 9.1529 17.2473Z" stroke="#EF3240" stroke-width="0.624987" mask="url(#path-1-outside-1_326_159)"/>
<mask id="path-2-outside-2_326_159" maskUnits="userSpaceOnUse" x="2.63269" y="4.63477" width="7" height="9" fill="black">
<rect fill="white" x="2.63269" y="4.63477" width="7" height="9"/>
<path d="M4.12451 12.7771C3.9095 12.7771 3.72336 12.6164 3.69708 12.3975C3.57944 11.4104 3.46181 8.93243 4.91476 7.24168C5.78515 6.2287 7.05885 5.68838 8.70052 5.63538C8.93966 5.62246 9.13744 5.81463 9.1452 6.05204C9.15295 6.28988 8.96595 6.48894 8.72853 6.4967C7.33806 6.54151 6.27507 6.981 5.56841 7.80311C4.30419 9.27454 4.47181 11.6133 4.55325 12.295C4.58125 12.5311 4.41278 12.7457 4.17622 12.7741C4.15899 12.7763 4.14175 12.7771 4.12451 12.7771Z"/>
</mask>
<path d="M4.12451 12.7771C3.9095 12.7771 3.72336 12.6164 3.69708 12.3975C3.57944 11.4104 3.46181 8.93243 4.91476 7.24168C5.78515 6.2287 7.05885 5.68838 8.70052 5.63538C8.93966 5.62246 9.13744 5.81463 9.1452 6.05204C9.15295 6.28988 8.96595 6.48894 8.72853 6.4967C7.33806 6.54151 6.27507 6.981 5.56841 7.80311C4.30419 9.27454 4.47181 11.6133 4.55325 12.295C4.58125 12.5311 4.41278 12.7457 4.17622 12.7741C4.15899 12.7763 4.14175 12.7771 4.12451 12.7771Z" fill="#EF3240"/>
<path d="M4.12451 12.7771C3.9095 12.7771 3.72336 12.6164 3.69708 12.3975C3.57944 11.4104 3.46181 8.93243 4.91476 7.24168C5.78515 6.2287 7.05885 5.68838 8.70052 5.63538C8.93966 5.62246 9.13744 5.81463 9.1452 6.05204C9.15295 6.28988 8.96595 6.48894 8.72853 6.4967C7.33806 6.54151 6.27507 6.981 5.56841 7.80311C4.30419 9.27454 4.47181 11.6133 4.55325 12.295C4.58125 12.5311 4.41278 12.7457 4.17622 12.7741C4.15899 12.7763 4.14175 12.7771 4.12451 12.7771Z" stroke="#EF3240" stroke-width="0.624987" mask="url(#path-2-outside-2_326_159)"/>
<mask id="path-3-outside-3_326_159" maskUnits="userSpaceOnUse" x="1.06531" y="16.957" width="6" height="6" fill="black">
<rect fill="white" x="1.06531" y="16.957" width="6" height="6"/>
<path d="M2.49619 21.9984C2.25834 21.9984 2.06531 21.8058 2.06531 21.5675V21.2272C2.06531 19.947 2.88399 18.8229 4.1021 18.4299L5.9394 17.9697C6.17036 17.9129 6.40433 18.052 6.46207 18.283C6.51981 18.5139 6.37934 18.7479 6.14838 18.8056L4.33866 19.2585C3.50533 19.5286 2.92665 20.3232 2.92665 21.2276V21.568C2.92708 21.8058 2.73447 21.9984 2.49619 21.9984Z"/>
</mask>
<path d="M2.49619 21.9984C2.25834 21.9984 2.06531 21.8058 2.06531 21.5675V21.2272C2.06531 19.947 2.88399 18.8229 4.1021 18.4299L5.9394 17.9697C6.17036 17.9129 6.40433 18.052 6.46207 18.283C6.51981 18.5139 6.37934 18.7479 6.14838 18.8056L4.33866 19.2585C3.50533 19.5286 2.92665 20.3232 2.92665 21.2276V21.568C2.92708 21.8058 2.73447 21.9984 2.49619 21.9984Z" fill="#EF3240"/>
<path d="M2.49619 21.9984C2.25834 21.9984 2.06531 21.8058 2.06531 21.5675V21.2272C2.06531 19.947 2.88399 18.8229 4.1021 18.4299L5.9394 17.9697C6.17036 17.9129 6.40433 18.052 6.46207 18.283C6.51981 18.5139 6.37934 18.7479 6.14838 18.8056L4.33866 19.2585C3.50533 19.5286 2.92665 20.3232 2.92665 21.2276V21.568C2.92708 21.8058 2.73447 21.9984 2.49619 21.9984Z" stroke="#EF3240" stroke-width="0.624987" mask="url(#path-3-outside-3_326_159)"/>
<mask id="path-4-outside-4_326_159" maskUnits="userSpaceOnUse" x="5.76672" y="15.2461" width="3" height="4" fill="black">
<rect fill="white" x="5.76672" y="15.2461" width="3" height="4"/>
<path d="M6.76672 16.2461H7.6285V18.0144H6.76672V16.2461Z"/>
</mask>
<path d="M6.76672 16.2461H7.6285V18.0144H6.76672V16.2461Z" fill="#EF3240"/>
<path d="M6.76672 16.2461H7.6285V18.0144H6.76672V16.2461Z" stroke="#EF3240" stroke-width="0.624987" mask="url(#path-4-outside-4_326_159)"/>
<mask id="path-5-outside-5_326_159" maskUnits="userSpaceOnUse" x="10.7965" y="16.9473" width="6" height="6" fill="black">
<rect fill="white" x="10.7965" y="16.9473" width="6" height="6"/>
<path d="M15.8001 22.0002C15.5619 22.0002 15.3692 21.8076 15.3692 21.5693V21.2289C15.3692 20.3241 14.7906 19.53 13.9297 19.2521L12.1221 18.7958C11.8911 18.7372 11.7515 18.5028 11.8097 18.2723C11.8683 18.0413 12.1031 17.9034 12.3332 17.9599L14.1675 18.4235C15.4128 18.8242 16.231 19.9484 16.231 21.2285V21.5689C16.231 21.8076 16.0384 22.0002 15.8001 22.0002Z"/>
</mask>
<path d="M15.8001 22.0002C15.5619 22.0002 15.3692 21.8076 15.3692 21.5693V21.2289C15.3692 20.3241 14.7906 19.53 13.9297 19.2521L12.1221 18.7958C11.8911 18.7372 11.7515 18.5028 11.8097 18.2723C11.8683 18.0413 12.1031 17.9034 12.3332 17.9599L14.1675 18.4235C15.4128 18.8242 16.231 19.9484 16.231 21.2285V21.5689C16.231 21.8076 16.0384 22.0002 15.8001 22.0002Z" fill="#EF3240"/>
<path d="M15.8001 22.0002C15.5619 22.0002 15.3692 21.8076 15.3692 21.5693V21.2289C15.3692 20.3241 14.7906 19.53 13.9297 19.2521L12.1221 18.7958C11.8911 18.7372 11.7515 18.5028 11.8097 18.2723C11.8683 18.0413 12.1031 17.9034 12.3332 17.9599L14.1675 18.4235C15.4128 18.8242 16.231 19.9484 16.231 21.2285V21.5689C16.231 21.8076 16.0384 22.0002 15.8001 22.0002Z" stroke="#EF3240" stroke-width="0.624987" mask="url(#path-5-outside-5_326_159)"/>
<mask id="path-6-outside-6_326_159" maskUnits="userSpaceOnUse" x="9.66833" y="15.2461" width="3" height="4" fill="black">
<rect fill="white" x="9.66833" y="15.2461" width="3" height="4"/>
<path d="M10.6683 16.2461H11.5301V17.9627H10.6683V16.2461Z"/>
</mask>
<path d="M10.6683 16.2461H11.5301V17.9627H10.6683V16.2461Z" fill="#EF3240"/>
<path d="M10.6683 16.2461H11.5301V17.9627H10.6683V16.2461Z" stroke="#EF3240" stroke-width="0.624987" mask="url(#path-6-outside-6_326_159)"/>
<mask id="path-7-outside-7_326_159" maskUnits="userSpaceOnUse" x="4.69849" y="16.1895" width="6" height="6" fill="black">
<rect fill="white" x="4.69849" y="16.1895" width="6" height="6"/>
<path d="M7.33849 21.6328C7.3023 21.6328 7.26567 21.628 7.22991 21.619C7.10495 21.5862 7.00154 21.5 6.94768 21.3828L5.79549 18.892C5.59513 18.4589 5.71233 17.944 6.08074 17.6403L6.50775 17.2882C6.67622 17.1491 6.92183 17.1577 7.07996 17.3094L9.45027 19.5779C9.54247 19.6662 9.59116 19.7912 9.58212 19.9187C9.5735 20.0463 9.50843 20.163 9.40502 20.238L7.59185 21.5513C7.51688 21.6043 7.42855 21.6328 7.33849 21.6328ZM6.76024 18.1961L6.62839 18.3047C6.56204 18.3594 6.54092 18.452 6.57712 18.5296L7.50999 20.5457L8.48077 19.8425L6.76024 18.1961Z"/>
</mask>
<path d="M7.33849 21.6328C7.3023 21.6328 7.26567 21.628 7.22991 21.619C7.10495 21.5862 7.00154 21.5 6.94768 21.3828L5.79549 18.892C5.59513 18.4589 5.71233 17.944 6.08074 17.6403L6.50775 17.2882C6.67622 17.1491 6.92183 17.1577 7.07996 17.3094L9.45027 19.5779C9.54247 19.6662 9.59116 19.7912 9.58212 19.9187C9.5735 20.0463 9.50843 20.163 9.40502 20.238L7.59185 21.5513C7.51688 21.6043 7.42855 21.6328 7.33849 21.6328ZM6.76024 18.1961L6.62839 18.3047C6.56204 18.3594 6.54092 18.452 6.57712 18.5296L7.50999 20.5457L8.48077 19.8425L6.76024 18.1961Z" fill="#EF3240"/>
<path d="M7.33849 21.6328C7.3023 21.6328 7.26567 21.628 7.22991 21.619C7.10495 21.5862 7.00154 21.5 6.94768 21.3828L5.79549 18.892C5.59513 18.4589 5.71233 17.944 6.08074 17.6403L6.50775 17.2882C6.67622 17.1491 6.92183 17.1577 7.07996 17.3094L9.45027 19.5779C9.54247 19.6662 9.59116 19.7912 9.58212 19.9187C9.5735 20.0463 9.50843 20.163 9.40502 20.238L7.59185 21.5513C7.51688 21.6043 7.42855 21.6328 7.33849 21.6328ZM6.76024 18.1961L6.62839 18.3047C6.56204 18.3594 6.54092 18.452 6.57712 18.5296L7.50999 20.5457L8.48077 19.8425L6.76024 18.1961Z" stroke="#EF3240" stroke-width="0.624987" mask="url(#path-7-outside-7_326_159)"/>
<mask id="path-8-outside-8_326_159" maskUnits="userSpaceOnUse" x="7.72144" y="16.1895" width="6" height="6" fill="black">
<rect fill="white" x="7.72144" y="16.1895" width="6" height="6"/>
<path d="M10.9657 21.6327C10.8761 21.6327 10.7873 21.6047 10.7132 21.5508L8.8996 20.2375C8.79619 20.1625 8.73112 20.0458 8.72251 19.9182C8.71346 19.7907 8.76215 19.6657 8.85436 19.5774L11.2251 17.3089C11.3837 17.1572 11.6293 17.1499 11.7973 17.2877L12.2243 17.6398C12.5923 17.9431 12.7099 18.4576 12.5096 18.8915L11.3574 21.3823C11.3035 21.4991 11.1997 21.5857 11.0751 21.6185C11.0385 21.6279 11.0019 21.6327 10.9657 21.6327ZM9.82299 19.8424L10.7942 20.5456L11.7266 18.5295C11.7624 18.4515 11.7417 18.3589 11.6754 18.3046L11.5435 18.196L9.82299 19.8424Z"/>
</mask>
<path d="M10.9657 21.6327C10.8761 21.6327 10.7873 21.6047 10.7132 21.5508L8.8996 20.2375C8.79619 20.1625 8.73112 20.0458 8.72251 19.9182C8.71346 19.7907 8.76215 19.6657 8.85436 19.5774L11.2251 17.3089C11.3837 17.1572 11.6293 17.1499 11.7973 17.2877L12.2243 17.6398C12.5923 17.9431 12.7099 18.4576 12.5096 18.8915L11.3574 21.3823C11.3035 21.4991 11.1997 21.5857 11.0751 21.6185C11.0385 21.6279 11.0019 21.6327 10.9657 21.6327ZM9.82299 19.8424L10.7942 20.5456L11.7266 18.5295C11.7624 18.4515 11.7417 18.3589 11.6754 18.3046L11.5435 18.196L9.82299 19.8424Z" fill="#EF3240"/>
<path d="M10.9657 21.6327C10.8761 21.6327 10.7873 21.6047 10.7132 21.5508L8.8996 20.2375C8.79619 20.1625 8.73112 20.0458 8.72251 19.9182C8.71346 19.7907 8.76215 19.6657 8.85436 19.5774L11.2251 17.3089C11.3837 17.1572 11.6293 17.1499 11.7973 17.2877L12.2243 17.6398C12.5923 17.9431 12.7099 18.4576 12.5096 18.8915L11.3574 21.3823C11.3035 21.4991 11.1997 21.5857 11.0751 21.6185C11.0385 21.6279 11.0019 21.6327 10.9657 21.6327ZM9.82299 19.8424L10.7942 20.5456L11.7266 18.5295C11.7624 18.4515 11.7417 18.3589 11.6754 18.3046L11.5435 18.196L9.82299 19.8424Z" stroke="#EF3240" stroke-width="0.624987" mask="url(#path-8-outside-8_326_159)"/>
<mask id="path-9-outside-9_326_159" maskUnits="userSpaceOnUse" x="8.68933" y="1" width="14" height="13" fill="black">
<rect fill="white" x="8.68933" y="1" width="14" height="13"/>
<path d="M11.5253 12.9787C11.4357 12.9787 11.3461 12.9545 11.2668 12.9076C11.113 12.8158 11.0186 12.6473 11.0208 12.4685L11.0419 10.5563C10.168 9.62475 9.68933 8.46053 9.68933 7.25796C9.68933 4.35861 12.4362 2 15.8118 2C18.0472 2 20.1051 3.04487 21.1815 4.72743C21.6744 5.49784 21.9347 6.37294 21.9347 7.25839C21.9347 10.1577 19.1878 12.5168 15.8118 12.5168C14.9362 12.5168 14.0947 12.3625 13.3058 12.0579L11.7718 12.9158C11.6951 12.958 11.6102 12.9787 11.5253 12.9787ZM15.8122 2.86175C12.9115 2.86175 10.5515 4.83386 10.5515 7.25796C10.5515 8.28775 10.9876 9.28953 11.7796 10.0789C11.8619 10.1608 11.9075 10.2724 11.9062 10.3887L11.8899 11.8623L13.0658 11.2048C13.1821 11.1401 13.3213 11.1324 13.4441 11.1841C14.1822 11.4965 14.9793 11.6546 15.8122 11.6546C18.7129 11.6546 21.0733 9.68249 21.0733 7.25839C21.0733 6.53797 20.86 5.82358 20.4554 5.19235C19.5359 3.75495 17.7568 2.86175 15.8122 2.86175Z"/>
</mask>
<path d="M11.5253 12.9787C11.4357 12.9787 11.3461 12.9545 11.2668 12.9076C11.113 12.8158 11.0186 12.6473 11.0208 12.4685L11.0419 10.5563C10.168 9.62475 9.68933 8.46053 9.68933 7.25796C9.68933 4.35861 12.4362 2 15.8118 2C18.0472 2 20.1051 3.04487 21.1815 4.72743C21.6744 5.49784 21.9347 6.37294 21.9347 7.25839C21.9347 10.1577 19.1878 12.5168 15.8118 12.5168C14.9362 12.5168 14.0947 12.3625 13.3058 12.0579L11.7718 12.9158C11.6951 12.958 11.6102 12.9787 11.5253 12.9787ZM15.8122 2.86175C12.9115 2.86175 10.5515 4.83386 10.5515 7.25796C10.5515 8.28775 10.9876 9.28953 11.7796 10.0789C11.8619 10.1608 11.9075 10.2724 11.9062 10.3887L11.8899 11.8623L13.0658 11.2048C13.1821 11.1401 13.3213 11.1324 13.4441 11.1841C14.1822 11.4965 14.9793 11.6546 15.8122 11.6546C18.7129 11.6546 21.0733 9.68249 21.0733 7.25839C21.0733 6.53797 20.86 5.82358 20.4554 5.19235C19.5359 3.75495 17.7568 2.86175 15.8122 2.86175Z" fill="#EF3240"/>
<path d="M11.5253 12.9787C11.4357 12.9787 11.3461 12.9545 11.2668 12.9076C11.113 12.8158 11.0186 12.6473 11.0208 12.4685L11.0419 10.5563C10.168 9.62475 9.68933 8.46053 9.68933 7.25796C9.68933 4.35861 12.4362 2 15.8118 2C18.0472 2 20.1051 3.04487 21.1815 4.72743C21.6744 5.49784 21.9347 6.37294 21.9347 7.25839C21.9347 10.1577 19.1878 12.5168 15.8118 12.5168C14.9362 12.5168 14.0947 12.3625 13.3058 12.0579L11.7718 12.9158C11.6951 12.958 11.6102 12.9787 11.5253 12.9787ZM15.8122 2.86175C12.9115 2.86175 10.5515 4.83386 10.5515 7.25796C10.5515 8.28775 10.9876 9.28953 11.7796 10.0789C11.8619 10.1608 11.9075 10.2724 11.9062 10.3887L11.8899 11.8623L13.0658 11.2048C13.1821 11.1401 13.3213 11.1324 13.4441 11.1841C14.1822 11.4965 14.9793 11.6546 15.8122 11.6546C18.7129 11.6546 21.0733 9.68249 21.0733 7.25839C21.0733 6.53797 20.86 5.82358 20.4554 5.19235C19.5359 3.75495 17.7568 2.86175 15.8122 2.86175Z" stroke="#EF3240" stroke-width="0.624987" mask="url(#path-9-outside-9_326_159)"/>
</svg>
