<svg viewBox="0 0 24 24" xmlns="http://www.w3.org/2000/svg">
<g>
<path d="M12 24C18.6274 24 24 18.6274 24 12C24 5.37258 18.6274 0 12 0C5.37258 0 0 5.37258 0 12C0 18.6274 5.37258 24 12 24Z" fill="#EE1C25"/>
<path d="M18.409 13.8945L17.2306 13.8753L16.8474 12.7617L16.465 13.8753L15.2866 13.8953L16.2282 14.6025L15.8834 15.7281L16.8482 15.0521L17.813 15.7281L17.4674 14.6025L18.409 13.8945Z" fill="#FFFF00"/>
<path d="M14.0868 8.5817L14.106 7.4033L15.2196 7.0201L14.106 6.6369L14.086 5.4585L13.3788 6.4001L12.2524 6.0561L12.9292 7.0209L12.2524 7.9857L13.3788 7.6393L14.0868 8.5817Z" fill="#FFFF00"/>
<path d="M14.0868 18.5417L14.106 17.3633L15.2196 16.9801L14.106 16.5969L14.086 15.4185L13.3788 16.3601L12.2524 16.0161L12.9292 16.9809L12.2524 17.9457L13.3788 17.5993L14.0868 18.5417Z" fill="#FFFF00"/>
<path d="M17.3223 10.0297L17.8391 8.97134L16.7807 9.48814L15.9335 8.66895L16.0991 9.83455L15.0591 10.3873L16.2199 10.5913L16.4239 11.7521L16.9751 10.7113L18.1415 10.8761L17.3223 10.0297Z" fill="#FFFF00"/>
<path d="M10.8087 10.5715L7.63191 10.5187L6.59911 7.51709L5.56711 10.5195L2.39111 10.5731L4.92951 12.4811L3.99991 15.5171L6.60071 13.6939L9.20231 15.5155L8.27111 12.4803L10.8087 10.5715Z" fill="#FFFF00"/>
</g>
</svg>
