<svg viewBox="0 0 24 24" xmlns="http://www.w3.org/2000/svg">
<g>
<path d="M12 24C18.6274 24 24 18.6274 24 12C24 5.37258 18.6274 0 12 0C5.37258 0 0 5.37258 0 12C0 18.6274 5.37258 24 12 24Z" fill="#EE1C25"/>
<path d="M11.6004 12.0799C11.2804 11.7599 11.1204 11.2799 11.2004 10.7999C11.3604 10.1599 12.1604 9.99994 12.5604 9.51994C12.9604 9.03994 12.9604 8.31994 12.6404 7.83994C12.4004 7.43994 12.4804 6.79994 12.9604 6.55994C13.0404 6.55994 13.1204 6.47994 13.2004 6.47994C11.8404 6.23994 10.4804 7.03994 10.0004 8.31994C9.36037 9.75994 10.0804 11.5199 11.6004 12.0799Z" fill="#F0F0F0"/>
<path d="M11.8404 8.87967L11.5204 8.79967L11.2804 9.11967V8.71967L10.8804 8.63967L11.2004 8.47967V8.15967L11.4404 8.39967L11.7604 8.23967L11.6004 8.55967L11.8404 8.87967Z" fill="#EE1C25"/>
<path d="M11.7598 11.9998C11.9998 11.5198 12.3998 11.2798 12.8798 11.2798C13.5998 11.2798 13.9198 11.9198 14.4798 12.1598C15.0398 12.3198 15.6798 12.1598 16.0798 11.6798C16.3998 11.2798 16.9598 11.1998 17.3598 11.5198C17.4398 11.5998 17.4398 11.5998 17.5198 11.6798C17.2798 10.3198 16.1598 9.27985 14.7998 9.19985C13.2798 9.11985 11.8398 10.3998 11.7598 11.9998Z" fill="#F0F0F0"/>
<path d="M14.8805 11.2797V10.8797L14.4805 10.7997L14.8005 10.6397V10.2397L15.0405 10.5597L15.3605 10.3997L15.2005 10.7197L15.4405 11.0397L15.0405 10.9597L14.8805 11.2797Z" fill="#EE1C25"/>
<path d="M11.5996 12.24C11.1996 12.48 10.6396 12.48 10.2396 12.16C9.67963 11.76 9.83963 11.04 9.43963 10.48C9.03963 10 8.47963 9.76004 7.83963 9.92004C7.35963 10.08 6.87963 9.76004 6.71963 9.28004C6.71963 9.20004 6.71963 9.12004 6.71963 9.04004C6.07963 10.24 6.39963 11.76 7.43963 12.64C8.71963 13.68 10.5596 13.52 11.5996 12.24Z" fill="#F0F0F0"/>
<path d="M8.64025 11.0404L8.48025 11.3604L8.72025 11.6004L8.32025 11.5204L8.16025 11.8404L8.08025 11.5204L7.76025 11.4404L8.08025 11.2804V10.8804L8.32025 11.2004L8.64025 11.0404Z" fill="#EE1C25"/>
<path d="M11.7602 12.2402C11.8402 12.7202 11.6802 13.2002 11.2802 13.5202C10.7202 13.9202 10.0802 13.6002 9.4402 13.7602C8.8802 13.9202 8.4802 14.4802 8.4002 15.1202C8.4002 15.6002 7.9202 16.0002 7.4402 16.0002C7.3602 16.0002 7.2802 16.0002 7.2002 15.9202C8.1602 16.8802 9.6802 17.0402 10.8802 16.3202C12.2402 15.5202 12.6402 13.6802 11.7602 12.2402Z" fill="#F0F0F0"/>
<path d="M9.67986 14.7197L9.91986 15.0397L10.3199 14.8797L10.0799 15.1997L10.3199 15.4397L9.99986 15.3597L9.75986 15.6797V15.3597L9.35986 15.2797L9.75986 15.1197L9.67986 14.7197Z" fill="#EE1C25"/>
<path d="M11.8398 12.1601C12.3198 12.2401 12.7198 12.5601 12.8798 12.9601C13.1198 13.6001 12.5598 14.1601 12.5598 14.8001C12.5598 15.4401 12.9598 16.0001 13.5198 16.1601C13.9998 16.3201 14.2398 16.8801 13.9998 17.3601C13.9998 17.4401 13.9198 17.5201 13.9198 17.5201C15.1198 16.8801 15.7598 15.5201 15.4398 14.1601C15.0398 12.6401 13.4398 11.6801 11.8398 12.1601Z" fill="#F0F0F0"/>
<path d="M13.52 14.8798L13.92 14.7198L13.84 14.3198L14.08 14.6398L14.48 14.4798L14.24 14.7998L14.48 15.1198L14.16 15.0398L13.92 15.3598V14.9598L13.52 14.8798Z" fill="#EE1C25"/>
</g>
</svg>
