<svg viewBox="0 0 24 24" xmlns="http://www.w3.org/2000/svg">
<path d="M12.1133 17.9232C11.6867 17.9232 11.2608 17.7807 10.905 17.4957C9.7375 16.5607 7.52917 14.2849 7.52917 12.3632C7.52917 10.7866 8.74417 9.5049 10.2375 9.5049C10.9792 9.5049 11.6333 9.7699 12.1125 10.2149C12.5917 9.77073 13.2458 9.5049 13.9875 9.5049C15.4808 9.5049 16.6958 10.7874 16.6958 12.3632C16.6958 14.2857 14.4883 16.5616 13.3208 17.4966C12.965 17.7816 12.5392 17.9232 12.1133 17.9232ZM10.2375 11.1707C9.66333 11.1707 9.19583 11.7057 9.19583 12.3624C9.19583 13.4257 10.7933 15.2707 11.9467 16.1941C12.045 16.2749 12.1792 16.2749 12.2792 16.1941C13.4325 15.2707 15.0292 13.4257 15.0292 12.3616C15.0292 11.7041 14.5617 11.1699 13.9875 11.1699C13.4692 11.1699 12.9458 11.4816 12.9458 12.1774C12.9458 12.6374 12.5733 13.0107 12.1125 13.0107C11.6517 13.0107 11.2792 12.6374 11.2792 12.1774C11.2792 11.4332 10.7175 11.1699 10.2375 11.1699V11.1707ZM17.8333 22.0041H6.16667C3.86917 22.0041 2 20.1349 2 17.8374V10.1074C2 8.72073 2.68583 7.4299 3.83583 6.65323L9.66917 2.71656C11.0842 1.76156 12.915 1.76073 14.3317 2.71656L20.165 6.6524C21.3142 7.42823 22 8.71906 22 10.1066V17.8366C22 20.1341 20.1308 22.0041 17.8333 22.0041ZM12.0008 3.66906C11.5133 3.66906 11.0267 3.8124 10.6017 4.09906L4.76833 8.0349C4.07833 8.50073 3.66667 9.2749 3.66667 10.1074V17.8374C3.66667 19.2157 4.78833 20.3374 6.16667 20.3374H17.8333C19.2117 20.3374 20.3333 19.2157 20.3333 17.8374V10.1074C20.3333 9.2749 19.9217 8.4999 19.2325 8.0349L13.3992 4.09906C12.9742 3.8124 12.4875 3.66906 12.0008 3.66906Z" />
</svg>
