<svg viewBox="0 0 24 24" xmlns="http://www.w3.org/2000/svg">
<path d="M2.22915 11.447L2.22985 11.4462L6.31204 7.38375C6.61786 7.07941 7.11251 7.08054 7.41692 7.3864C7.7213 7.69222 7.72012 8.18687 7.4143 8.49125L4.67352 11.2187L21.2188 11.2187C21.6502 11.2187 22 11.5685 22 12C22 12.4315 21.6502 12.7812 21.2188 12.7812L4.67356 12.7812L7.41427 15.5087C7.72009 15.8131 7.72126 16.3078 7.41688 16.6136C7.11247 16.9195 6.61778 16.9205 6.312 16.6162L2.22981 12.5537L2.22911 12.553C1.92313 12.2476 1.92411 11.7514 2.22915 11.447Z"/>
</svg>
