<svg viewBox="0 0 24 24" xmlns="http://www.w3.org/2000/svg">
<path d="M21.7709 11.447C21.7706 11.4468 21.7704 11.4465 21.7701 11.4462L17.688 7.38375C17.3821 7.07941 16.8875 7.08054 16.5831 7.3864C16.2787 7.69222 16.2799 8.18687 16.5857 8.49125L19.3265 11.2187H2.78125C2.34977 11.2187 2 11.5685 2 12C2 12.4315 2.34977 12.7812 2.78125 12.7812H19.3264L16.5857 15.5087C16.2799 15.8131 16.2787 16.3078 16.5831 16.6136C16.8875 16.9195 17.3822 16.9205 17.688 16.6162L21.7702 12.5537C21.7704 12.5535 21.7706 12.5532 21.7709 12.553C22.0769 12.2476 22.0759 11.7514 21.7709 11.447Z" />
</svg>
