<svg viewBox="0 0 24 24" xmlns="http://www.w3.org/2000/svg">
<path d="M10.721 6.67962C10.4163 6.84257 10.3004 7.221 10.4615 7.52663C10.6242 7.83063 11.0026 7.94514 11.3066 7.78242C11.6106 7.61969 11.7251 7.24135 11.5624 6.93736C11.4004 6.63477 11.0246 6.51967 10.721 6.67962Z" />
<path d="M14.4998 8.24899C11.393 8.23887 8.86617 10.7493 8.85609 13.8561C8.84601 16.963 11.3564 19.4897 14.4632 19.4998C14.8963 19.5012 15.3281 19.4526 15.75 19.355V20.4374C15.7498 20.6099 15.61 20.7497 15.4375 20.7499H5.4358C5.26328 20.7497 5.12349 20.6099 5.12325 20.4374V6.06132H15.4375C15.61 6.06156 15.7498 6.20134 15.75 6.37383V7.31141C15.75 7.65666 16.0299 7.93651 16.3751 7.93651C16.7204 7.93651 17.0002 7.65666 17.0002 7.31141V6.37383C16.9992 5.51119 16.3001 4.81221 15.4375 4.81123H13.8747V2.62353C13.8715 2.27593 13.587 1.99679 13.2394 2.00003C13.178 2.00061 13.117 2.01015 13.0583 2.02839L4.30691 4.84112C4.05042 4.92699 3.87637 5.16578 3.87305 5.43626V20.4374C3.8741 21.3 4.57316 21.999 5.4358 22H15.4375C16.3001 21.999 16.9992 21.3 17.0002 20.4374V18.9062C19.7818 17.5282 20.9196 14.1561 19.5415 11.3745C18.5923 9.45844 16.6381 8.24699 14.4998 8.24899ZM12.6245 3.48027V4.81057H8.48564L12.6245 3.48027ZM10.1879 14.5905C9.85309 12.6641 10.8519 10.7525 12.6245 9.92707V11.7398L11.9212 12.4462C11.4992 12.8664 11.4337 13.5265 11.765 14.0215L12.5182 15.1529L10.1879 14.5905ZM14.4998 18.2503C12.9413 18.2484 11.5016 17.4175 10.7202 16.0691L12.2713 16.3781C12.9484 16.5144 13.6078 16.076 13.744 15.3989C13.8096 15.0734 13.743 14.7353 13.559 14.459L12.8026 13.3276L13.509 12.6244C13.7433 12.3896 13.8748 12.0715 13.8747 11.7398V9.54877C15.2229 9.34112 16.5896 9.7867 17.5563 10.749H16.2188C15.4425 10.7502 14.8135 11.3792 14.8123 12.1555V13.0932C14.8135 13.8695 15.4425 14.4985 16.2188 14.4997C16.3043 14.4988 16.3742 14.5674 16.3751 14.6529V15.281C16.3763 16.0573 17.0053 16.6864 17.7816 16.6875H17.8468C17.0172 17.6779 15.7917 18.2501 14.4998 18.2503ZM17.7816 15.4373C17.6961 15.4382 17.6262 15.3696 17.6253 15.2841C17.6253 15.2831 17.6253 15.2821 17.6253 15.281V14.6559C17.6241 13.8796 16.9951 13.2506 16.2188 13.2495C16.1334 13.2503 16.0634 13.1817 16.0626 13.0963C16.0626 13.0953 16.0626 13.0942 16.0626 13.0932V12.1555C16.0617 12.0701 16.1303 12.0001 16.2157 11.9993H18.4473C18.967 13.077 19.0158 14.3222 18.582 15.4373H17.7816Z" />
<path d="M8.74186 8.19257C8.6806 8.22383 8.61223 8.28325 8.56784 8.32626C7.63882 9.31842 6.97286 10.5273 6.63065 11.8427C6.54286 12.1766 6.74239 12.5184 7.07631 12.6062C7.41023 12.694 7.75208 12.4945 7.83987 12.1606C7.8403 12.1589 7.84073 12.1572 7.84116 12.1555C8.13168 11.0389 8.7687 9.87617 9.52242 9.12718C9.72354 8.87346 9.69705 8.50809 9.46147 8.28602C9.33082 8.16299 9.06523 8.03305 8.74186 8.19257Z" />
</svg>
