<svg viewBox="0 0 24 24" xmlns="http://www.w3.org/2000/svg">
<path d="M17.0689 10.1079L16.7373 12.8921C16.723 13.0214 16.6613 13.1409 16.5641 13.2274C16.4669 13.3139 16.3411 13.3613 16.211 13.3605H13.3162V21.6237C13.3169 21.7223 13.2786 21.8173 13.2096 21.8878C13.1406 21.9583 13.0465 21.9986 12.9478 22H9.99781C9.94874 21.9993 9.90028 21.989 9.8552 21.9696C9.81013 21.9501 9.76932 21.922 9.73511 21.8868C9.70089 21.8517 9.67395 21.8101 9.65581 21.7645C9.63767 21.7189 9.62869 21.6701 9.62939 21.6211L9.64518 13.3605H7.45307C7.31349 13.3605 7.17962 13.3051 7.08091 13.2064C6.98221 13.1077 6.92676 12.9738 6.92676 12.8342V10.05C6.92676 9.91041 6.98221 9.77654 7.08091 9.67784C7.17962 9.57914 7.31349 9.52368 7.45307 9.52368H9.63202V6.82368C9.63202 3.7 11.4899 2 14.211 2H16.4399C16.5795 2 16.7134 2.05545 16.8121 2.15415C16.9108 2.25286 16.9662 2.38673 16.9662 2.52632V4.87105C16.9662 5.01064 16.9108 5.14451 16.8121 5.24321C16.7134 5.34192 16.5795 5.39737 16.4399 5.39737H15.0741C13.5952 5.42105 13.3162 6.12895 13.3162 7.18684V9.51579H16.5557C16.6296 9.51706 16.7024 9.53388 16.7694 9.56516C16.8364 9.59643 16.896 9.64147 16.9444 9.69733C16.9928 9.75319 17.0289 9.81862 17.0504 9.88936C17.0718 9.9601 17.0781 10.0346 17.0689 10.1079Z" />
</svg>
