<svg viewBox="0 0 24 24" xmlns="http://www.w3.org/2000/svg">
<path d="M16.0421 2H7.95789C6.3784 2.00209 4.8642 2.63046 3.74733 3.74733C2.63046 4.8642 2.00209 6.3784 2 7.95789V16.0421C2.00209 17.6216 2.63046 19.1358 3.74733 20.2527C4.8642 21.3695 6.3784 21.9979 7.95789 22H16.0421C17.6218 21.9986 19.1364 21.3705 20.2534 20.2534C21.3705 19.1364 21.9986 17.6218 22 16.0421V7.95789C21.9979 6.3784 21.3695 4.8642 20.2527 3.74733C19.1358 2.63046 17.6216 2.00209 16.0421 2ZM19.9895 16.0421C19.9895 17.089 19.5736 18.093 18.8333 18.8333C18.093 19.5736 17.089 19.9895 16.0421 19.9895H7.95789C6.91099 19.9895 5.90696 19.5736 5.16668 18.8333C4.42641 18.093 4.01053 17.089 4.01053 16.0421V7.95789C4.01053 6.91099 4.42641 5.90696 5.16668 5.16668C5.90696 4.42641 6.91099 4.01053 7.95789 4.01053H16.0421C17.089 4.01053 18.093 4.42641 18.8333 5.16668C19.5736 5.90696 19.9895 6.91099 19.9895 7.95789V16.0421Z" />
<path d="M12 6.82813C10.9766 6.82761 9.97592 7.13066 9.12471 7.69895C8.2735 8.26724 7.60997 9.07524 7.21806 10.0207C6.82615 10.9662 6.72347 12.0067 6.92302 13.0105C7.12256 14.0143 7.61536 14.9364 8.33907 15.6602C9.06278 16.3839 9.98488 16.8767 10.9887 17.0762C11.9926 17.2758 13.033 17.1731 13.9785 16.7812C14.924 16.3893 15.732 15.7257 16.3003 14.8745C16.8686 14.0233 17.1716 13.0227 17.1711 11.9992C17.1697 10.6282 16.6245 9.31369 15.655 8.34423C14.6855 7.37477 13.3711 6.82952 12 6.82813ZM12 15.1571C11.3755 15.1571 10.7649 14.9719 10.2456 14.6249C9.7263 14.2779 9.32155 13.7847 9.08253 13.2077C8.84352 12.6306 8.78098 11.9957 8.90283 11.3831C9.02468 10.7705 9.32544 10.2078 9.76708 9.76621C10.2087 9.32457 10.7714 9.02381 11.384 8.90196C11.9965 8.78011 12.6315 8.84265 13.2085 9.08166C13.7856 9.32068 14.2787 9.72543 14.6257 10.2447C14.9727 10.7641 15.1579 11.3746 15.1579 11.9992C15.1579 12.8367 14.8252 13.6399 14.233 14.2321C13.6408 14.8244 12.8376 15.1571 12 15.1571Z" />
<path d="M17.2025 8.10868C17.9089 8.10868 18.4815 7.53607 18.4815 6.82973C18.4815 6.12338 17.9089 5.55078 17.2025 5.55078C16.4962 5.55078 15.9236 6.12338 15.9236 6.82973C15.9236 7.53607 16.4962 8.10868 17.2025 8.10868Z" />
</svg>
