<svg viewBox="0 0 24 24" xmlns="http://www.w3.org/2000/svg">
<path d="M21.9009 4.13478C21.7921 3.97238 21.6096 3.875 21.4141 3.875H17.3624C17.1194 3.875 16.9016 4.02503 16.815 4.25215L13.554 12.8L11.9547 5.89505C11.6865 4.73675 10.6681 3.92781 9.47838 3.92781H2.58568C2.27699 3.92781 2.02156 4.16744 2.00127 4.47544C1.98112 4.7836 2.20345 5.05467 2.50954 5.09512C2.52571 5.09726 4.14497 5.31842 6.12435 6.19222C6.44829 6.33523 6.79436 6.50191 7.15309 6.69437L10.519 19.6859C10.586 19.9444 10.8193 20.125 11.0864 20.125H15.2174C15.4549 20.125 15.669 19.9815 15.7594 19.7617L21.956 4.68394C22.0303 4.50307 22.0097 4.29717 21.9009 4.13478ZM6.55251 5.10016H9.47838C10.1197 5.10016 10.6686 5.53576 10.8131 6.15956L11.3285 8.38535C10.9052 7.93922 10.4458 7.51888 9.95201 7.12662C8.95302 6.33325 7.81243 5.65283 6.56166 5.10413C6.55861 5.10275 6.55556 5.10138 6.55251 5.10016ZM14.8248 18.9528H11.5397L8.59307 7.57977C9.80736 8.43206 11.0333 9.59219 11.9692 11.1519L12.8458 14.9362C12.904 15.1874 13.1194 15.371 13.3765 15.3886C13.634 15.406 13.8721 15.2538 13.964 15.0128L17.7659 5.04719H20.5396L14.8248 18.9528Z" />
</svg>
