<svg viewBox="0 0 24 24" xmlns="http://www.w3.org/2000/svg">
<path d="M21.1017 3.4089C20.821 3.17367 20.4919 3.00331 20.1379 2.90996C19.7838 2.81662 19.4135 2.80259 19.0533 2.8689L13.9033 3.80473C13.1664 3.93761 12.4958 4.31518 12 4.8764C11.5046 4.31426 10.834 3.93578 10.0967 3.80223L4.94667 2.8664C4.58647 2.80099 4.21631 2.81549 3.86234 2.90886C3.50836 3.00224 3.17921 3.17221 2.89815 3.40678C2.61709 3.64134 2.39097 3.93477 2.23577 4.26633C2.08058 4.59788 2.00009 4.95948 2 5.32556L2 19.3539L12 21.1731L22 19.3539V5.32556C22 4.95975 21.9196 4.59841 21.7643 4.26717C21.6091 3.93593 21.3828 3.64291 21.1017 3.4089ZM11.1667 19.3256L3.66667 17.9639V5.32556C3.66677 5.20356 3.69366 5.08306 3.74545 4.97258C3.79723 4.86211 3.87264 4.76435 3.96635 4.68622C4.06006 4.60809 4.16979 4.55149 4.28777 4.52042C4.40576 4.48934 4.52913 4.48456 4.64917 4.5064L9.79833 5.44223C10.1824 5.5121 10.5297 5.71453 10.7797 6.01424C11.0298 6.31394 11.1667 6.69191 11.1667 7.08223V19.3256ZM20.3333 17.9622L12.8333 19.3256V7.08223C12.8333 6.69191 12.9702 6.31394 13.2203 6.01424C13.4703 5.71453 13.8176 5.5121 14.2017 5.44223L19.3508 4.5064C19.4709 4.48456 19.5942 4.48934 19.7122 4.52042C19.8302 4.55149 19.9399 4.60809 20.0336 4.68622C20.1274 4.76435 20.2028 4.86211 20.2546 4.97258C20.3063 5.08306 20.3332 5.20356 20.3333 5.32556V17.9622Z" />
</svg>
