<svg viewBox="0 0 24 24" xmlns="http://www.w3.org/2000/svg">
<path d="M8.66659 11.9998C8.66596 11.8902 8.68698 11.7814 8.72845 11.6799C8.76992 11.5784 8.83103 11.486 8.90826 11.4082L13.9083 6.40816C14.0652 6.25124 14.278 6.16309 14.4999 6.16309C14.7218 6.16309 14.9347 6.25124 15.0916 6.40816C15.2485 6.56508 15.3367 6.77791 15.3367 6.99983C15.3367 7.22175 15.2485 7.43458 15.0916 7.5915L10.6749 11.9998L15.0833 16.4082C15.2198 16.5676 15.2911 16.7726 15.283 16.9824C15.2749 17.1921 15.188 17.3911 15.0396 17.5395C14.8912 17.6879 14.6922 17.7748 14.4825 17.7829C14.2727 17.791 14.0677 17.7197 13.9083 17.5832L8.90826 12.5832C8.75431 12.4279 8.66751 12.2184 8.66659 11.9998Z" fill="currentColor"/>
</svg>
