<svg viewBox="0 0 24 24" xmlns="http://www.w3.org/2000/svg">
<path d="M12.0001 15.3332C11.8904 15.3338 11.7817 15.3128 11.6802 15.2713C11.5786 15.2298 11.4863 15.1687 11.4084 15.0915L6.40841 10.0915C6.25149 9.93458 6.16333 9.72175 6.16333 9.49983C6.16333 9.27791 6.25149 9.06508 6.40841 8.90816C6.56533 8.75124 6.77816 8.66309 7.00007 8.66309C7.22199 8.66309 7.43482 8.75124 7.59174 8.90816L12.0001 13.3248L16.4084 8.9165C16.5678 8.77997 16.7729 8.70864 16.9826 8.71674C17.1923 8.72484 17.3913 8.81178 17.5397 8.96019C17.6881 9.10861 17.7751 9.30755 17.7832 9.51728C17.7913 9.72701 17.7199 9.93208 17.5834 10.0915L12.5834 15.0915C12.4282 15.2454 12.2187 15.3322 12.0001 15.3332Z" fill="currentColor"/>
</svg>
