<svg viewBox="0 0 24 24" fill="none" xmlns="http://www.w3.org/2000/svg">
<path d="M15.3334 12.0002C15.334 12.1098 15.313 12.2186 15.2715 12.3201C15.2301 12.4216 15.169 12.514 15.0917 12.5918L10.0917 17.5918C9.93482 17.7488 9.72199 17.8369 9.50007 17.8369C9.27816 17.8369 9.06533 17.7488 8.90841 17.5918C8.75149 17.4349 8.66333 17.2221 8.66333 17.0002C8.66333 16.7783 8.75149 16.5654 8.90841 16.4085L13.3251 12.0002L8.91674 7.59184C8.78022 7.43242 8.70888 7.22736 8.71698 7.01763C8.72508 6.8079 8.81203 6.60895 8.96044 6.46054C9.10885 6.31212 9.3078 6.22518 9.51753 6.21708C9.72726 6.20898 9.93232 6.28032 10.0917 6.41684L15.0917 11.4168C15.2457 11.5721 15.3325 11.7816 15.3334 12.0002Z" fill="currentColor"/>
</svg>
