<svg viewBox="0 0 24 24" xmlns="http://www.w3.org/2000/svg">
<g>
<path d="M10.8114 3.78479C11.1856 2.63315 12.8149 2.63315 13.1891 3.78479L14.526 7.89954C14.6934 8.41456 15.1733 8.76326 15.7148 8.76326H20.0413C21.2523 8.76326 21.7557 10.3128 20.7761 11.0245L17.2759 13.5676C16.8378 13.8859 16.6544 14.4501 16.8218 14.9651L18.1587 19.0799C18.5329 20.2315 17.2148 21.1892 16.2352 20.4774L12.735 17.9344C12.2969 17.6161 11.7036 17.6161 11.2655 17.9344L7.7653 20.4774C6.78566 21.1892 5.46756 20.2315 5.84175 19.0799L7.17871 14.9651C7.34605 14.4501 7.16273 13.8859 6.72462 13.5676L3.22441 11.0245C2.24477 10.3128 2.74824 8.76326 3.95914 8.76326H8.28564C8.82717 8.76326 9.30712 8.41456 9.47446 7.89954L10.8114 3.78479Z" fill="currentColor"/>
</g>
</svg>
