<svg viewBox="0 0 24 24" xmlns="http://www.w3.org/2000/svg">
<path d="M20.3813 6.36792L14.2363 3.44042C12.8836 2.63245 11.2 2.61811 9.83377 3.40292L3.61963 6.36792C3.59631 6.3796 3.57213 6.3921 3.54963 6.40542C2.07494 7.24862 1.56298 9.12764 2.40619 10.6023C2.69201 11.1023 3.11244 11.5119 3.61963 11.7846L5.3338 12.6013V16.6846C5.33482 18.5105 6.52291 20.1236 8.26631 20.6663C9.47955 21.0173 10.7376 21.1891 12.0005 21.1763C13.2632 21.1904 14.5212 21.02 15.7347 20.6705C17.4781 20.1278 18.6661 18.5147 18.6672 16.6888V12.5996L20.3338 11.8029V18.6762C20.3338 19.1365 20.7069 19.5096 21.1672 19.5096C21.6274 19.5096 22.0005 19.1365 22.0005 18.6762V8.67624C22.006 7.69768 21.2334 6.7937 20.3813 6.36792ZM17.0004 16.6888C17.0009 17.7809 16.2923 18.747 15.2504 19.0746C14.194 19.3765 13.0992 19.523 12.0004 19.5096C10.9017 19.523 9.80693 19.3765 8.75045 19.0746C7.70861 18.7469 7.00002 17.7809 7.00045 16.6888V13.3955L9.76463 14.7121C10.4467 15.1171 11.2256 15.3299 12.0188 15.328C12.7738 15.3333 13.5161 15.1334 14.1663 14.7496L17.0004 13.3954V16.6888ZM19.6671 10.2804L13.3821 13.2804C12.5058 13.7907 11.4196 13.7762 10.5571 13.2429L4.40795 10.3179C3.72252 9.94831 3.4665 9.09303 3.83611 8.40764C3.96111 8.17585 4.14853 7.9837 4.37713 7.85292L10.6229 4.8696C11.4995 4.36046 12.5852 4.37487 13.4479 4.9071L19.5929 7.8346C20.0449 8.08553 20.3276 8.5594 20.3338 9.07628C20.3346 9.56589 20.0825 10.0212 19.6671 10.2804Z" />
</svg>
