<svg viewBox="0 0 24 24" xmlns="http://www.w3.org/2000/svg">
<path d="M6.16741 5.33393C6.16741 4.87385 6.54081 4.50045 7.00089 4.50045H8.66786V2.83348C8.66786 2.3734 9.04126 2 9.50134 2C9.96142 2 10.3348 2.3734 10.3348 2.83348V4.50045H12.0018C12.4619 4.50045 12.8353 4.87385 12.8353 5.33393C12.8353 5.79401 12.4619 6.16741 12.0018 6.16741H10.3348V7.83438C10.3348 8.29446 9.96142 8.66786 9.50134 8.66786C9.04126 8.66786 8.66786 8.29446 8.66786 7.83438V6.16741H7.00089C6.54081 6.16741 6.16741 5.79401 6.16741 5.33393ZM21.3668 12.8478L15.6949 19.2131C14.1147 20.9867 11.8468 22.0036 9.47217 22.0036H5.33393C3.49527 22.0036 2 20.5083 2 18.6696V14.5022C2 12.6636 3.49527 11.1683 5.33393 11.1683H12.7169C13.6663 11.1683 14.4989 11.6759 14.9582 12.4335L17.6386 9.48801C18.0904 8.99208 18.7072 8.7012 19.3773 8.67036C20.0466 8.63285 20.6883 8.87039 21.1843 9.32214C22.1961 10.2448 22.2778 11.8259 21.3668 12.8469V12.8478ZM20.0616 10.5549C19.8957 10.404 19.679 10.3323 19.4548 10.3365C19.2297 10.3473 19.023 10.444 18.8714 10.6107L15.1824 14.6648C14.8615 15.5574 14.0663 16.2409 13.087 16.3809L8.78538 16.9952C8.33113 17.061 7.90772 16.7443 7.84271 16.2884C7.7777 15.8325 8.09442 15.4107 8.5495 15.3457L12.8511 14.7314C13.317 14.6648 13.6688 14.2597 13.6688 13.7888C13.6688 13.2637 13.242 12.8369 12.7169 12.8369H5.33393C4.4146 12.8369 3.66696 13.5846 3.66696 14.5039V18.6713C3.66696 19.5906 4.4146 20.3383 5.33393 20.3383H9.47217C11.3717 20.3383 13.187 19.5248 14.4506 18.1062L20.1224 11.7401C20.4283 11.3967 20.4008 10.8658 20.0616 10.5557V10.5549Z" />
</svg>
