<svg viewBox="0 0 24 24" xmlns="http://www.w3.org/2000/svg">
<mask id="path-1-outside-1_340_153" maskUnits="userSpaceOnUse" x="3.08765" y="1.2998" width="18" height="21" fill="black">
<rect fill="white" x="3.08765" y="1.2998" width="18" height="21"/>
<path d="M17.284 2.2998H6.67874C5.98333 2.30959 5.32016 2.59463 4.83452 3.09246C4.34887 3.59029 4.08036 4.26032 4.0878 4.95575V20.13C4.08593 20.433 4.17289 20.7299 4.33793 20.9841C4.50297 21.2383 4.73886 21.4385 5.01645 21.5601C5.27999 21.6846 5.57481 21.7273 5.86284 21.6826C6.15087 21.6379 6.41889 21.5079 6.63231 21.3093L11.6006 16.9075C11.7141 16.8171 11.8548 16.7679 11.9999 16.7679C12.145 16.7679 12.2858 16.8171 12.3992 16.9075L17.3675 21.3093C17.5822 21.5057 17.8501 21.6342 18.1376 21.6788C18.4251 21.7234 18.7193 21.6821 18.9834 21.5601C19.261 21.4385 19.4969 21.2383 19.6619 20.9841C19.827 20.7299 19.9139 20.433 19.9121 20.13V4.95575C19.9157 4.60829 19.8505 4.26355 19.7201 3.94147C19.5896 3.61939 19.3966 3.32638 19.1522 3.07938C18.9078 2.83238 18.6169 2.6363 18.2962 2.50249C17.9755 2.36867 17.6314 2.29979 17.284 2.2998ZM18.9463 20.13C18.9501 20.2523 18.9178 20.373 18.8534 20.4771C18.789 20.5812 18.6953 20.6639 18.5841 20.715C18.4828 20.7627 18.3696 20.7794 18.2589 20.7629C18.1482 20.7464 18.0448 20.6974 17.9619 20.6221L12.9936 16.2296C12.7104 15.9906 12.3519 15.8595 11.9814 15.8595C11.6108 15.8595 11.2523 15.9906 10.9691 16.2296L6.00082 20.6221C5.9179 20.6974 5.81454 20.7464 5.7038 20.7629C5.59306 20.7794 5.4799 20.7627 5.37863 20.715C5.26741 20.6639 5.17373 20.5812 5.1093 20.4771C5.04488 20.373 5.01259 20.2523 5.01645 20.13V4.95575C5.00898 4.5066 5.17965 4.07275 5.49115 3.74907C5.80265 3.42539 6.22963 3.23822 6.67874 3.22846H17.284C17.7331 3.23822 18.1601 3.42539 18.4716 3.74907C18.7831 4.07275 18.9537 4.5066 18.9463 4.95575V20.13Z"/>
</mask>
<path d="M17.284 2.2998H6.67874C5.98333 2.30959 5.32016 2.59463 4.83452 3.09246C4.34887 3.59029 4.08036 4.26032 4.0878 4.95575V20.13C4.08593 20.433 4.17289 20.7299 4.33793 20.9841C4.50297 21.2383 4.73886 21.4385 5.01645 21.5601C5.27999 21.6846 5.57481 21.7273 5.86284 21.6826C6.15087 21.6379 6.41889 21.5079 6.63231 21.3093L11.6006 16.9075C11.7141 16.8171 11.8548 16.7679 11.9999 16.7679C12.145 16.7679 12.2858 16.8171 12.3992 16.9075L17.3675 21.3093C17.5822 21.5057 17.8501 21.6342 18.1376 21.6788C18.4251 21.7234 18.7193 21.6821 18.9834 21.5601C19.261 21.4385 19.4969 21.2383 19.6619 20.9841C19.827 20.7299 19.9139 20.433 19.9121 20.13V4.95575C19.9157 4.60829 19.8505 4.26355 19.7201 3.94147C19.5896 3.61939 19.3966 3.32638 19.1522 3.07938C18.9078 2.83238 18.6169 2.6363 18.2962 2.50249C17.9755 2.36867 17.6314 2.29979 17.284 2.2998ZM18.9463 20.13C18.9501 20.2523 18.9178 20.373 18.8534 20.4771C18.789 20.5812 18.6953 20.6639 18.5841 20.715C18.4828 20.7627 18.3696 20.7794 18.2589 20.7629C18.1482 20.7464 18.0448 20.6974 17.9619 20.6221L12.9936 16.2296C12.7104 15.9906 12.3519 15.8595 11.9814 15.8595C11.6108 15.8595 11.2523 15.9906 10.9691 16.2296L6.00082 20.6221C5.9179 20.6974 5.81454 20.7464 5.7038 20.7629C5.59306 20.7794 5.4799 20.7627 5.37863 20.715C5.26741 20.6639 5.17373 20.5812 5.1093 20.4771C5.04488 20.373 5.01259 20.2523 5.01645 20.13V4.95575C5.00898 4.5066 5.17965 4.07275 5.49115 3.74907C5.80265 3.42539 6.22963 3.23822 6.67874 3.22846H17.284C17.7331 3.23822 18.1601 3.42539 18.4716 3.74907C18.7831 4.07275 18.9537 4.5066 18.9463 4.95575V20.13Z" fill="currentColor"/>
<path d="M17.284 2.2998H6.67874C5.98333 2.30959 5.32016 2.59463 4.83452 3.09246C4.34887 3.59029 4.08036 4.26032 4.0878 4.95575V20.13C4.08593 20.433 4.17289 20.7299 4.33793 20.9841C4.50297 21.2383 4.73886 21.4385 5.01645 21.5601C5.27999 21.6846 5.57481 21.7273 5.86284 21.6826C6.15087 21.6379 6.41889 21.5079 6.63231 21.3093L11.6006 16.9075C11.7141 16.8171 11.8548 16.7679 11.9999 16.7679C12.145 16.7679 12.2858 16.8171 12.3992 16.9075L17.3675 21.3093C17.5822 21.5057 17.8501 21.6342 18.1376 21.6788C18.4251 21.7234 18.7193 21.6821 18.9834 21.5601C19.261 21.4385 19.4969 21.2383 19.6619 20.9841C19.827 20.7299 19.9139 20.433 19.9121 20.13V4.95575C19.9157 4.60829 19.8505 4.26355 19.7201 3.94147C19.5896 3.61939 19.3966 3.32638 19.1522 3.07938C18.9078 2.83238 18.6169 2.6363 18.2962 2.50249C17.9755 2.36867 17.6314 2.29979 17.284 2.2998ZM18.9463 20.13C18.9501 20.2523 18.9178 20.373 18.8534 20.4771C18.789 20.5812 18.6953 20.6639 18.5841 20.715C18.4828 20.7627 18.3696 20.7794 18.2589 20.7629C18.1482 20.7464 18.0448 20.6974 17.9619 20.6221L12.9936 16.2296C12.7104 15.9906 12.3519 15.8595 11.9814 15.8595C11.6108 15.8595 11.2523 15.9906 10.9691 16.2296L6.00082 20.6221C5.9179 20.6974 5.81454 20.7464 5.7038 20.7629C5.59306 20.7794 5.4799 20.7627 5.37863 20.715C5.26741 20.6639 5.17373 20.5812 5.1093 20.4771C5.04488 20.373 5.01259 20.2523 5.01645 20.13V4.95575C5.00898 4.5066 5.17965 4.07275 5.49115 3.74907C5.80265 3.42539 6.22963 3.23822 6.67874 3.22846H17.284C17.7331 3.23822 18.1601 3.42539 18.4716 3.74907C18.7831 4.07275 18.9537 4.5066 18.9463 4.95575V20.13Z" stroke="currentColor" stroke-width="0.582" mask="url(#path-1-outside-1_340_153)"/>
</svg>
