<svg viewBox="0 0 24 24"  xmlns="http://www.w3.org/2000/svg">
<path d="M19.0586 4.94534C17.3944 3.2623 15.1834 2.22971 12.8246 2.03399C10.4658 1.83827 8.11476 2.49233 6.19594 3.87807C4.27712 5.26382 2.91696 7.28993 2.36104 9.59061C1.80511 11.8913 2.09006 14.3149 3.16442 16.4239L2.11183 21.5343C2.10056 21.5853 2.10012 21.6382 2.11054 21.6894C2.12097 21.7406 2.14203 21.7891 2.17235 21.8316C2.21578 21.8961 2.27786 21.9458 2.35028 21.974C2.4227 22.0022 2.50201 22.0076 2.5776 21.9895L7.57744 20.8027C9.68066 21.8489 12.0869 22.1149 14.3678 21.5532C16.6487 20.9916 18.6564 19.6388 20.0334 17.7356C21.4104 15.8325 22.0674 13.5025 21.8874 11.1603C21.7075 8.81815 20.7023 6.61582 19.0507 4.94534H19.0586ZM17.4955 17.4107C16.3446 18.5596 14.8625 19.3189 13.2576 19.5818C11.6528 19.8448 10.0058 19.5981 8.54846 18.8765L7.84848 18.5291L4.77753 19.2554V19.2159L5.42488 16.1187L5.08278 15.445C4.3376 13.9836 4.07449 12.3238 4.3312 10.7036C4.58791 9.08348 5.35125 7.58628 6.51168 6.42687C7.96876 4.97131 9.94407 4.15371 12.0036 4.15371C14.0632 4.15371 16.0385 4.97131 17.4955 6.42687L17.5297 6.47424C18.9679 7.93442 19.7707 9.90377 19.7633 11.9532C19.7559 14.0027 18.9389 15.9662 17.4903 17.416L17.4955 17.4107Z"/>
<path d="M17.2246 15.1575C16.8483 15.7496 16.2509 16.4732 15.5062 16.6548C14.1904 16.9706 12.1879 16.6548 9.68006 14.3365L9.64849 14.3075C7.46698 12.2707 6.88805 10.5734 7.01699 9.22874C7.09331 8.46297 7.73013 7.77352 8.26695 7.3209C8.3523 7.24894 8.4533 7.19793 8.56188 7.17197C8.67046 7.14601 8.78361 7.1458 8.89229 7.17137C9.00096 7.19694 9.10215 7.24758 9.18776 7.31923C9.27337 7.39089 9.34103 7.48158 9.38534 7.58405L10.1932 9.41031C10.2459 9.52787 10.2657 9.65755 10.2504 9.78549C10.2351 9.91342 10.1853 10.0348 10.1064 10.1366L9.69585 10.6629C9.61053 10.7721 9.5597 10.9044 9.54986 11.0426C9.54001 11.1809 9.5716 11.319 9.64059 11.4392C10.0305 12.0139 10.4971 12.5327 11.0274 12.9812C11.5979 13.5303 12.245 13.9939 12.9484 14.3575C13.0768 14.4093 13.2176 14.4216 13.3531 14.393C13.4885 14.3645 13.6124 14.2962 13.7089 14.197L14.1799 13.7181C14.2695 13.6217 14.3841 13.552 14.5109 13.5167C14.6377 13.4814 14.7718 13.4819 14.8983 13.5181L16.8193 14.0681C16.9282 14.099 17.0282 14.1552 17.1113 14.232C17.1944 14.3088 17.2583 14.4041 17.2978 14.5102C17.3372 14.6162 17.3511 14.7301 17.3384 14.8426C17.3257 14.955 17.2867 15.0629 17.2246 15.1575Z"/>
</svg>
