<svg viewBox="0 0 24 24" xmlns="http://www.w3.org/2000/svg">
<path d="M21.5273 7.19218C21.1276 5.95097 19.8049 5.21729 18.5768 5.04636C14.1993 4.5809 9.78486 4.5809 5.40739 5.04636C4.18985 5.21729 2.86712 5.96149 2.46741 7.19218C1.8442 10.3675 1.8442 13.6336 2.46741 16.8089C2.87764 18.0475 4.20037 18.7838 5.42843 18.9547C9.80604 19.4175 14.2202 19.4175 18.5979 18.9547C19.8154 18.7838 21.1381 18.037 21.5378 16.8089C22.1576 13.6329 22.154 10.3668 21.5273 7.19218ZM9.61225 15.828V8.17042L15.8472 11.9992C13.7461 13.2904 11.7055 14.5474 9.61225 15.828Z" />
</svg>
